# This file uses centimeters as units for non-parametric coordinates.

mtllib box_ng.mtl
g default
v -1.598195 0.003763 0.719287
v -0.665213 0.003763 1.598195
v -0.942934 0.742814 2.265426
v -2.265427 0.742814 1.019583
v 1.598195 0.003763 0.719287
v 0.665213 0.003763 1.598195
v 0.942934 0.742814 2.265427
v 2.265426 0.742814 1.019583
v -0.677694 2.668700 1.628182
v -1.628181 2.668700 0.732783
v 0.677694 2.668700 1.628181
v 1.628182 2.668700 0.732783
v -0.677694 2.668700 -1.628181
v -1.628182 2.668700 -0.732783
v 0.677694 2.668700 -1.628182
v 1.628181 2.668700 -0.732783
v -0.942934 0.742814 -2.265427
v -2.265426 0.742814 -1.019583
v 0.942934 0.742814 -2.265426
v 2.265427 0.742814 -1.019583
v -1.598195 0.003763 -0.719287
v -0.665213 0.003763 -1.598195
v 1.598195 0.003763 -0.719287
v 0.665213 0.003763 -1.598195
v -0.124139 3.152391 0.330103
v -0.330103 3.152391 0.124139
v 0.124139 3.152391 0.330103
v 0.330103 3.152391 0.124139
v 0.330103 3.152391 -0.124139
v 0.124139 3.152391 -0.330103
v -0.124139 3.152391 -0.330103
v -0.330103 3.152391 -0.124139
v -0.092419 3.620468 0.242330
v -0.245956 3.594556 0.091106
v 0.092595 3.619957 0.242352
v 0.246022 3.593196 0.091165
v 0.245956 3.561449 -0.091106
v 0.092419 3.535538 -0.242331
v -0.092595 3.536049 -0.242352
v -0.246022 3.562809 -0.091165
vt 0.937686 0.801551
vt 0.962903 0.909782
vt 0.877037 0.977385
vt 0.841297 0.823981
vt 0.615973 0.992671
vt 0.590290 0.882434
vt 0.242997 0.051083
vt 0.475907 0.933148
vt 0.470602 0.910377
vt 0.353940 0.085426
vt 0.439307 0.569204
vt 0.365673 0.192270
vt 0.348845 0.501228
vt 0.503347 0.294837
vt 0.629529 0.389093
vt 0.213728 0.145571
vt 0.250156 0.427020
vt 0.562604 0.215692
vt 0.651514 0.282272
vt 0.415890 0.758800
vt 0.465569 0.143121
vt 0.137521 0.391817
vt 0.128667 0.518245
vt 0.802155 0.656867
vt 0.562646 0.762096
vt 0.910276 0.683577
vt 0.740498 0.378468
vt 0.500997 0.665571
vt 0.140049 0.744369
vt 0.168591 0.744369
vt 0.167827 0.797459
vt 0.139883 0.794519
vt 0.192708 0.744369
vt 0.193492 0.797398
vt 0.221250 0.744369
vt 0.221412 0.794364
vt 0.144975 0.819815
vt 0.298202 0.787883
vt 0.298026 0.744369
vt 0.216453 0.819641
vt 0.216518 0.846521
vt 0.194274 0.868874
vt 0.167393 0.868940
vt 0.145040 0.846695
vt 0.465394 0.887967
vt 0.275104 0.599791
vt 0.717855 0.526225
vt 0.101038 0.509692
vt 0.256717 0.586038
vt 0.801087 0.472773
vt 0.293855 0.613832
vt 0.861982 0.567556
vt 0.061196 0.098354
vt 0.139241 0.018965
vt 0.031572 0.359020
vt 0.080390 0.503301
vt 0.398377 0.731540
vt 0.381780 0.705707
vt 0.245367 0.744369
vt 0.245201 0.790764
vt 0.273909 0.744369
vt 0.273753 0.787825
vt 0.087390 0.744369
vt 0.087566 0.787883
vt 0.115932 0.744369
vt 0.116094 0.790918
vn 0.002744 0.985165 -0.171590
vn 0.002744 0.985165 -0.171590
vn 0.002744 0.985165 -0.171590
vn 0.002744 0.985165 -0.171590
vn 0.002744 0.985165 -0.171590
vn 0.002744 0.985165 -0.171590
vn 0.002744 0.985165 -0.171590
vn 0.002744 0.985165 -0.171590
vn -0.505930 -0.674985 0.537057
vn -0.505930 -0.674985 0.537057
vn -0.505930 -0.674985 0.537057
vn -0.505930 -0.674985 0.537057
vn -0.650130 0.317890 0.690128
vn -0.650130 0.317890 0.690128
vn -0.650130 0.317890 0.690128
vn -0.650130 0.317890 0.690128
vn 0.505930 -0.674985 0.537057
vn 0.505930 -0.674985 0.537057
vn 0.505930 -0.674985 0.537056
vn 0.505930 -0.674985 0.537057
vn 0.650130 0.317890 0.690128
vn 0.650130 0.317890 0.690128
vn 0.650130 0.317890 0.690128
vn 0.650130 0.317890 0.690128
vn -0.235885 0.939687 0.247684
vn -0.235885 0.939687 0.247684
vn -0.235885 0.939687 0.247684
vn -0.235885 0.939687 0.247684
vn -0.650130 0.317890 -0.690128
vn -0.650130 0.317890 -0.690128
vn -0.650130 0.317890 -0.690128
vn -0.650130 0.317890 -0.690128
vn 0.650130 0.317890 -0.690128
vn 0.650130 0.317891 -0.690128
vn 0.650130 0.317890 -0.690128
vn 0.650130 0.317890 -0.690128
vn -0.505930 -0.674985 -0.537057
vn -0.505930 -0.674985 -0.537057
vn -0.505930 -0.674985 -0.537057
vn -0.505930 -0.674985 -0.537057
vn 0.505930 -0.674985 -0.537057
vn 0.505930 -0.674985 -0.537057
vn 0.505930 -0.674985 -0.537057
vn 0.505930 -0.674985 -0.537057
vn -0.000000 -0.670122 0.742251
vn -0.000000 -0.670121 0.742251
vn -0.000000 -0.670121 0.742251
vn -0.000000 -0.670121 0.742251
vn 0.000000 0.314134 0.949379
vn 0.000000 0.314134 0.949379
vn 0.000000 0.314134 0.949378
vn 0.000000 0.314134 0.949378
vn -0.000000 0.937060 -0.349168
vn -0.000000 0.937060 -0.349168
vn -0.000000 0.937060 -0.349168
vn -0.000000 0.937060 -0.349168
vn 0.000000 0.314134 -0.949378
vn 0.000000 0.314134 -0.949379
vn 0.000000 0.314134 -0.949379
vn 0.000000 0.314134 -0.949378
vn 0.000000 -0.670121 -0.742252
vn 0.000000 -0.670121 -0.742252
vn 0.000000 -0.670121 -0.742252
vn 0.000000 -0.670121 -0.742252
vn 0.742251 -0.670121 0.000000
vn 0.742252 -0.670121 0.000000
vn 0.742252 -0.670121 0.000000
vn 0.742251 -0.670121 0.000000
vn 0.949379 0.314134 -0.000000
vn 0.949379 0.314134 -0.000000
vn 0.949379 0.314134 -0.000000
vn 0.949379 0.314134 -0.000000
vn -0.742252 -0.670121 -0.000000
vn -0.742252 -0.670121 -0.000000
vn -0.742252 -0.670121 -0.000000
vn -0.742252 -0.670121 -0.000000
vn -0.949378 0.314134 0.000000
vn -0.949379 0.314134 0.000000
vn -0.949379 0.314134 0.000000
vn -0.949379 0.314134 0.000000
vn -0.349168 0.937060 0.000000
vn -0.349168 0.937060 0.000000
vn -0.349168 0.937060 0.000000
vn -0.349168 0.937060 0.000000
vn 0.000000 0.937060 0.349168
vn 0.000000 0.937060 0.349168
vn 0.000000 0.937060 0.349168
vn 0.000000 0.937060 0.349168
vn 0.235885 0.939687 0.247684
vn 0.235885 0.939687 0.247684
vn 0.235885 0.939687 0.247684
vn 0.235885 0.939687 0.247684
vn 0.349168 0.937060 -0.000000
vn 0.349168 0.937060 -0.000000
vn 0.349168 0.937060 -0.000000
vn 0.349168 0.937060 -0.000000
vn 0.235885 0.939687 -0.247684
vn 0.235885 0.939687 -0.247684
vn 0.235885 0.939687 -0.247684
vn 0.235885 0.939687 -0.247684
vn -0.235885 0.939687 -0.247684
vn -0.235885 0.939687 -0.247684
vn -0.235885 0.939687 -0.247684
vn -0.235885 0.939687 -0.247684
vn -0.699733 0.180798 0.691148
vn -0.699733 0.180798 0.691148
vn -0.699733 0.180798 0.691148
vn -0.699733 0.180798 0.691148
vn 0.000168 0.184380 0.982855
vn 0.000168 0.184379 0.982855
vn 0.000168 0.184380 0.982855
vn 0.000168 0.184380 0.982855
vn 0.700007 0.180917 0.690840
vn 0.700007 0.180917 0.690840
vn 0.700007 0.180917 0.690840
vn 0.700007 0.180917 0.690840
vn 0.980863 0.194159 -0.014467
vn 0.980863 0.194159 -0.014467
vn 0.980863 0.194159 -0.014467
vn 0.980863 0.194159 -0.014467
vn 0.682058 0.206726 -0.701471
vn 0.682058 0.206725 -0.701471
vn 0.682058 0.206725 -0.701470
vn 0.682058 0.206725 -0.701471
vn 0.000313 0.223130 -0.974789
vn 0.000313 0.223130 -0.974789
vn 0.000313 0.223130 -0.974789
vn 0.000313 0.223130 -0.974789
vn -0.682016 0.205992 -0.701727
vn -0.682016 0.205992 -0.701727
vn -0.682016 0.205992 -0.701727
vn -0.682016 0.205993 -0.701727
vn -0.980986 0.193562 -0.014122
vn -0.980986 0.193562 -0.014122
vn -0.980986 0.193562 -0.014122
vn -0.980986 0.193562 -0.014122
s off
g pCube7
usemtl initialShadingGroup
f 34/37/1 33/31/2 35/34/3 36/40/4 37/41/5 38/42/6 39/43/7 40/44/8
f 1/1/9 2/2/10 3/3/11 4/4/12
f 4/4/13 3/3/14 9/5/15 10/6/16
f 6/7/17 5/10/18 8/12/19 7/16/20
f 7/16/21 8/12/22 12/17/23 11/22/24
f 10/6/25 9/5/26 25/8/27 26/9/28
f 14/25/29 13/28/30 17/47/31 18/24/32
f 15/11/33 16/13/34 20/14/35 19/15/36
f 18/24/37 17/47/38 22/50/39 21/52/40
f 19/15/41 20/14/42 23/18/43 24/19/44
f 3/53/45 2/54/46 6/7/47 7/16/48
f 3/53/49 7/16/50 11/22/51 9/55/52
f 15/11/53 13/28/54 31/57/55 30/58/56
f 13/28/57 15/11/58 19/15/59 17/47/60
f 17/47/61 19/15/62 24/27/63 22/50/64
f 8/12/65 5/21/66 23/18/67 20/14/68
f 8/12/69 20/14/70 16/13/71 12/17/72
f 18/24/73 21/26/74 1/1/75 4/4/76
f 18/24/77 4/4/78 10/6/79 14/25/80
f 14/25/81 10/6/82 26/9/83 32/45/84
f 11/22/85 27/48/86 25/56/87 9/55/88
f 12/17/89 28/23/90 27/48/91 11/22/92
f 16/13/93 29/46/94 28/49/95 12/17/96
f 15/11/97 30/51/98 29/46/99 16/13/100
f 14/25/101 32/20/102 31/57/103 13/28/104
f 26/29/105 25/30/106 33/31/107 34/32/108
f 25/30/109 27/33/110 35/34/111 33/31/112
f 27/33/113 28/35/114 36/36/115 35/34/116
f 28/35/117 29/59/118 37/60/119 36/36/120
f 29/59/121 30/61/122 38/62/123 37/60/124
f 30/61/125 31/39/126 39/38/127 38/62/128
f 31/63/129 32/65/130 40/66/131 39/64/132
f 32/65/133 26/29/134 34/32/135 40/66/136
