# This file uses centimeters as units for non-parametric coordinates.

mtllib box_cannon.mtl
g default
v -1.265365 0.000551 1.267098
v 1.268831 0.000551 1.267098
v -0.941794 1.902778 0.943527
v 0.945260 1.902778 0.943527
v -0.941794 1.902778 -0.943527
v 0.945260 1.902778 -0.943527
v -1.265365 0.000551 -1.267098
v 1.268831 0.000551 -1.267098
v 1.166862 0.600013 -0.401248
v 1.166862 0.600013 0.401248
v 1.064398 1.202384 -0.384823
v 1.064398 1.202384 0.384823
v 2.290245 0.791101 -0.401248
v 2.290245 0.791101 0.401248
v 2.173558 1.393472 -0.384823
v 2.173558 1.393473 0.384823
vt 0.979700 0.299493
vt 0.979659 0.702776
vt 0.349890 0.349729
vt 0.648377 0.350518
vt 0.648388 0.651787
vt 0.347127 0.651809
vt 0.298871 0.023472
vt 0.699364 0.024264
vt 0.699342 0.977992
vt 0.296037 0.977996
vt 0.018565 0.701999
vt 0.018565 0.298708
vt 0.152142 0.898990
vt 0.077962 0.898987
vt 0.077962 0.776984
vt 0.152142 0.776983
vt 0.776402 0.785167
vt 0.875772 0.785167
vt 0.875701 0.904061
vt 0.776378 0.904061
vt 0.873232 0.562417
vt 0.873232 0.438472
vt 0.304303 0.776983
vt 0.769519 0.562407
vt 0.225305 0.776983
vt 0.769519 0.438125
vt 0.225362 0.898990
vt 0.304416 0.898988
vt 0.004803 0.776985
vt 0.004803 0.898985
vn 0.000000 0.167692 0.985839
vn 0.000000 0.167692 0.985839
vn 0.000000 0.167692 0.985839
vn 0.000000 0.167692 0.985839
vn 0.000000 1.000000 0.000000
vn 0.000000 1.000000 0.000000
vn 0.000000 1.000000 0.000000
vn 0.000000 1.000000 0.000000
vn 0.000000 0.167692 -0.985839
vn 0.000000 0.167692 -0.985839
vn 0.000000 0.167692 -0.985839
vn 0.000000 0.167692 -0.985839
vn 0.981750 0.190176 -0.000000
vn 0.981750 0.190176 -0.000000
vn 0.981750 0.190176 -0.000000
vn 0.981750 0.190176 -0.000000
vn -0.985839 0.167692 0.000000
vn -0.985839 0.167692 0.000000
vn -0.985839 0.167692 0.000000
vn -0.985839 0.167692 0.000000
vn 0.985839 0.167692 0.000000
vn 0.985839 0.167692 -0.000000
vn 0.985839 0.167692 -0.000000
vn 0.985839 0.167692 0.000000
vn 0.985839 0.167692 -0.000000
vn 0.985839 0.167692 -0.000000
vn 0.985839 0.167692 0.000000
vn 0.985839 0.167692 0.000000
vn 0.167692 -0.985839 0.000000
vn 0.167692 -0.985839 0.000000
vn 0.167692 -0.985839 0.000000
vn 0.167692 -0.985839 0.000000
vn -0.004525 0.026434 -0.999640
vn -0.004525 0.026434 -0.999640
vn -0.004525 0.026434 -0.999640
vn -0.004525 0.026434 -0.999640
vn -0.169780 0.985482 -0.000000
vn -0.169780 0.985482 -0.000000
vn -0.169780 0.985482 -0.000000
vn -0.169780 0.985482 -0.000000
vn -0.004525 0.026433 0.999640
vn -0.004525 0.026433 0.999640
vn -0.004525 0.026433 0.999640
vn -0.004525 0.026433 0.999640
s off
g pCube7
usemtl lambert4SG
f 1/7/1 2/8/2 4/4/3 3/3/4
f 3/3/5 4/4/6 6/5/7 5/6/8
f 5/6/9 6/5/10 8/9/11 7/10/12
f 14/17/13 13/18/14 15/19/15 16/20/16
f 7/11/17 1/12/18 3/3/19 5/6/20
s 1
f 2/1/21 8/2/22 9/21/23 10/22/24
f 8/2/22 6/5/25 11/24/26 9/21/23
f 6/5/25 4/4/27 12/26/28 11/24/26
f 4/4/27 2/1/21 10/22/24 12/26/28
s off
f 10/27/29 9/13/30 13/16/31 14/25/32
f 9/13/33 11/14/34 15/15/35 13/16/36
f 11/14/37 12/30/38 16/29/39 15/15/40
f 12/28/41 10/27/42 14/25/43 16/23/44
