# This file uses centimeters as units for non-parametric coordinates.

mtllib box_ttq.mtl
g default
v 0.544992 0.838853 -0.544992
v 0.000000 0.838853 -0.770735
v -0.544992 0.838853 -0.544992
v -0.770735 0.838853 0.000000
v -0.544992 0.838853 0.544992
v 0.000000 0.838853 0.770736
v 0.544992 0.838853 0.544992
v 0.770736 0.838853 0.000000
v 0.953737 1.680407 -0.953737
v 0.000000 1.680407 -1.348787
v -0.953737 1.680407 -0.953737
v -1.348787 1.680407 0.000000
v -0.953737 1.680407 0.953737
v 0.000000 1.680407 1.348787
v 0.953737 1.680407 0.953737
v 1.348787 1.680407 0.000000
v 1.557961 1.680406 -1.557961
v 0.000000 1.680406 -2.203290
v -1.557961 1.680406 -1.557961
v -2.203290 1.680406 0.000000
v -1.557961 1.680406 1.557961
v 0.000000 1.680406 2.203290
v 1.557962 1.680406 1.557962
v 2.203290 1.680406 0.000000
v 2.019850 0.838853 -2.019850
v 0.000000 0.838853 -2.856499
v -2.019850 0.838853 -2.019850
v -2.856499 0.838853 0.000000
v -2.019850 0.838853 2.019850
v 0.000000 0.838853 2.856499
v 2.019850 0.838853 2.019850
v 2.856499 0.838853 0.000000
v 1.557961 -0.002701 -1.557961
v 0.000000 -0.002701 -2.203290
v -1.557961 -0.002701 -1.557961
v -2.203290 -0.002701 0.000000
v -1.557961 -0.002701 1.557961
v 0.000000 -0.002701 2.203290
v 1.557961 -0.002701 1.557961
v 2.203290 -0.002701 0.000000
v 0.953736 -0.002701 -0.953736
v 0.000000 -0.002701 -1.348787
v -0.953736 -0.002701 -0.953736
v -1.348787 -0.002701 0.000000
v -0.953736 -0.002701 0.953736
v 0.000000 -0.002701 1.348787
v 0.953736 -0.002701 0.953736
v 1.348787 -0.002701 0.000000
vt 0.297275 0.993741
vt 0.094836 0.909888
vt 0.710854 0.372701
vt 0.765476 0.350076
vt 0.141129 0.863595
vt 0.806442 0.391042
vt 0.297275 0.928273
vt 0.710854 0.430636
vt 0.499714 0.909888
vt 0.656232 0.350076
vt 0.453421 0.863595
vt 0.615266 0.391042
vt 0.583567 0.707449
vt 0.633607 0.295454
vt 0.518099 0.707449
vt 0.575672 0.295454
vt 0.656232 0.240832
vt 0.615266 0.199866
vt 0.710854 0.218207
vt 0.710854 0.160272
vt 0.765476 0.240832
vt 0.806442 0.199866
vt 0.788101 0.295454
vt 0.846036 0.295454
vt 0.499714 0.505010
vt 0.453421 0.551302
vt 0.297275 0.421157
vt 0.297275 0.486625
vt 0.094836 0.505010
vt 0.141129 0.551302
vt 0.010983 0.707449
vt 0.076451 0.707449
vt 0.201687 0.803037
vt 0.297275 0.842631
vt 0.392863 0.803037
vt 0.432457 0.707449
vt 0.392863 0.611861
vt 0.297275 0.572267
vt 0.201687 0.611861
vt 0.162093 0.707449
vt 0.242653 0.762071
vt 0.297275 0.784696
vt 0.351897 0.762071
vt 0.374522 0.707449
vt 0.351897 0.652827
vt 0.297275 0.630202
vt 0.242653 0.652827
vt 0.220028 0.707449
vt 0.867000 0.451600
vt 0.710854 0.516278
vt 0.554708 0.451600
vt 0.490030 0.295454
vt 0.554708 0.139308
vt 0.710854 0.074630
vt 0.867000 0.139308
vt 0.931679 0.295454
vt 0.913293 0.497893
vt 0.710854 0.581746
vt 0.508415 0.497893
vt 0.424562 0.295454
vt 0.508415 0.093015
vt 0.710854 0.009162
vt 0.913293 0.093015
vt 0.997146 0.295454
vn -0.323113 0.535815 0.780064
vn -0.323113 0.535815 0.780064
vn -0.323113 0.535815 0.780064
vn -0.323113 0.535815 0.780064
vn 0.323113 0.535815 0.780064
vn 0.323113 0.535815 0.780064
vn 0.323113 0.535815 0.780064
vn 0.323113 0.535815 0.780064
vn 0.780064 0.535815 0.323113
vn 0.780064 0.535815 0.323113
vn 0.780064 0.535815 0.323113
vn 0.780064 0.535815 0.323113
vn 0.780064 0.535815 -0.323113
vn 0.780064 0.535815 -0.323113
vn 0.780064 0.535815 -0.323113
vn 0.780064 0.535815 -0.323113
vn 0.323113 0.535815 -0.780064
vn 0.323113 0.535815 -0.780064
vn 0.323113 0.535815 -0.780064
vn 0.323113 0.535815 -0.780064
vn -0.323113 0.535815 -0.780064
vn -0.323113 0.535815 -0.780064
vn -0.323113 0.535815 -0.780064
vn -0.323113 0.535815 -0.780064
vn -0.780064 0.535815 -0.323113
vn -0.780064 0.535815 -0.323113
vn -0.780064 0.535815 -0.323113
vn -0.780064 0.535815 -0.323113
vn -0.780064 0.535815 0.323113
vn -0.780064 0.535815 0.323113
vn -0.780064 0.535815 0.323113
vn -0.780064 0.535815 0.323113
vn 0.000001 1.000000 -0.000002
vn 0.000001 1.000000 -0.000002
vn 0.000001 1.000000 -0.000002
vn 0.000001 1.000000 -0.000002
vn -0.000001 1.000000 -0.000002
vn -0.000001 1.000000 -0.000002
vn -0.000001 1.000000 -0.000002
vn -0.000001 1.000000 -0.000002
vn -0.000002 1.000000 -0.000001
vn -0.000002 1.000000 -0.000001
vn -0.000002 1.000000 -0.000001
vn -0.000002 1.000000 -0.000001
vn -0.000002 1.000000 0.000000
vn -0.000002 1.000000 0.000000
vn -0.000002 1.000000 0.000000
vn -0.000002 1.000000 0.000000
vn -0.000001 1.000000 0.000002
vn -0.000001 1.000000 0.000002
vn -0.000001 1.000000 0.000002
vn -0.000001 1.000000 0.000002
vn 0.000001 1.000000 0.000001
vn 0.000001 1.000000 0.000001
vn 0.000001 1.000000 0.000001
vn 0.000001 1.000000 0.000001
vn 0.000002 1.000000 0.000001
vn 0.000002 1.000000 0.000001
vn 0.000002 1.000000 0.000001
vn 0.000002 1.000000 0.000001
vn 0.000002 1.000000 -0.000001
vn 0.000002 1.000000 -0.000001
vn 0.000002 1.000000 -0.000001
vn 0.000002 1.000000 -0.000001
vn 0.310986 0.582757 -0.750787
vn 0.310986 0.582757 -0.750787
vn 0.310986 0.582757 -0.750787
vn 0.310986 0.582757 -0.750787
vn -0.310986 0.582757 -0.750787
vn -0.310986 0.582757 -0.750787
vn -0.310986 0.582757 -0.750787
vn -0.310986 0.582757 -0.750787
vn -0.750787 0.582757 -0.310986
vn -0.750787 0.582757 -0.310986
vn -0.750787 0.582757 -0.310986
vn -0.750787 0.582757 -0.310986
vn -0.750787 0.582757 0.310986
vn -0.750787 0.582757 0.310986
vn -0.750787 0.582757 0.310986
vn -0.750787 0.582757 0.310986
vn -0.310986 0.582757 0.750787
vn -0.310986 0.582757 0.750787
vn -0.310986 0.582757 0.750787
vn -0.310986 0.582757 0.750787
vn 0.310986 0.582757 0.750787
vn 0.310986 0.582757 0.750787
vn 0.310986 0.582757 0.750787
vn 0.310986 0.582757 0.750787
vn 0.750787 0.582757 0.310986
vn 0.750787 0.582757 0.310986
vn 0.750787 0.582757 0.310986
vn 0.750787 0.582757 0.310986
vn 0.750787 0.582757 -0.310986
vn 0.750787 0.582757 -0.310986
vn 0.750787 0.582757 -0.310986
vn 0.750787 0.582757 -0.310986
vn 0.310986 -0.582757 -0.750787
vn 0.310986 -0.582757 -0.750787
vn 0.310986 -0.582757 -0.750787
vn 0.310986 -0.582757 -0.750787
vn -0.310986 -0.582757 -0.750787
vn -0.310986 -0.582757 -0.750787
vn -0.310986 -0.582757 -0.750787
vn -0.310986 -0.582757 -0.750787
vn -0.750787 -0.582757 -0.310986
vn -0.750787 -0.582757 -0.310986
vn -0.750787 -0.582757 -0.310986
vn -0.750787 -0.582757 -0.310986
vn -0.750787 -0.582757 0.310986
vn -0.750787 -0.582757 0.310986
vn -0.750787 -0.582757 0.310986
vn -0.750787 -0.582757 0.310986
vn -0.310986 -0.582757 0.750788
vn -0.310986 -0.582757 0.750787
vn -0.310986 -0.582757 0.750787
vn -0.310986 -0.582757 0.750787
vn 0.310986 -0.582757 0.750787
vn 0.310986 -0.582757 0.750787
vn 0.310986 -0.582757 0.750787
vn 0.310986 -0.582757 0.750787
vn 0.750788 -0.582757 0.310986
vn 0.750787 -0.582757 0.310986
vn 0.750787 -0.582757 0.310986
vn 0.750787 -0.582757 0.310986
vn 0.750787 -0.582757 -0.310986
vn 0.750787 -0.582757 -0.310986
vn 0.750787 -0.582757 -0.310986
vn 0.750787 -0.582757 -0.310986
vn 0.000000 -1.000000 -0.000000
vn 0.000000 -1.000000 -0.000000
vn 0.000000 -1.000000 -0.000000
vn 0.000000 -1.000000 -0.000000
vn 0.000000 -1.000000 -0.000000
vn 0.000000 -1.000000 -0.000000
vn 0.000000 -1.000000 -0.000000
vn 0.000000 -1.000000 -0.000000
vn 0.000000 -1.000000 0.000000
vn 0.000000 -1.000000 0.000000
vn 0.000000 -1.000000 0.000000
vn 0.000000 -1.000000 0.000000
vn 0.000000 -1.000000 -0.000000
vn 0.000000 -1.000000 -0.000000
vn 0.000000 -1.000000 -0.000000
vn 0.000000 -1.000000 -0.000000
vn 0.000000 -1.000000 0.000000
vn 0.000000 -1.000000 0.000000
vn 0.000000 -1.000000 0.000000
vn 0.000000 -1.000000 0.000000
vn 0.000000 -1.000000 0.000000
vn 0.000000 -1.000000 0.000000
vn 0.000000 -1.000000 0.000000
vn 0.000000 -1.000000 0.000000
vn 0.000000 -1.000000 0.000000
vn 0.000000 -1.000000 0.000000
vn 0.000000 -1.000000 0.000000
vn 0.000000 -1.000000 0.000000
vn 0.000000 -1.000000 0.000000
vn 0.000000 -1.000000 0.000000
vn 0.000000 -1.000000 0.000000
vn 0.000000 -1.000000 0.000000
vn -0.323113 -0.535815 0.780064
vn -0.323113 -0.535815 0.780064
vn -0.323113 -0.535815 0.780064
vn -0.323113 -0.535815 0.780064
vn 0.323113 -0.535815 0.780064
vn 0.323113 -0.535815 0.780064
vn 0.323113 -0.535815 0.780064
vn 0.323113 -0.535815 0.780064
vn 0.780064 -0.535815 0.323113
vn 0.780064 -0.535815 0.323113
vn 0.780064 -0.535815 0.323113
vn 0.780064 -0.535815 0.323113
vn 0.780064 -0.535815 -0.323113
vn 0.780064 -0.535815 -0.323113
vn 0.780064 -0.535815 -0.323113
vn 0.780064 -0.535815 -0.323113
vn 0.323113 -0.535815 -0.780064
vn 0.323113 -0.535815 -0.780064
vn 0.323113 -0.535815 -0.780064
vn 0.323113 -0.535815 -0.780064
vn -0.323113 -0.535815 -0.780064
vn -0.323113 -0.535815 -0.780064
vn -0.323113 -0.535815 -0.780064
vn -0.323113 -0.535815 -0.780064
vn -0.780064 -0.535815 -0.323113
vn -0.780064 -0.535815 -0.323113
vn -0.780064 -0.535815 -0.323113
vn -0.780064 -0.535815 -0.323113
vn -0.780064 -0.535815 0.323113
vn -0.780064 -0.535815 0.323113
vn -0.780064 -0.535815 0.323113
vn -0.780064 -0.535815 0.323113
s off
g pTorus1
usemtl initialShadingGroup
f 2/3/1 1/4/2 9/6/3 10/8/4
f 3/10/5 2/3/6 10/8/7 11/12/8
f 4/14/9 3/10/10 11/12/11 12/16/12
f 5/17/13 4/14/14 12/16/15 13/18/16
f 6/19/17 5/17/18 13/18/19 14/20/20
f 7/21/21 6/19/22 14/20/23 15/22/24
f 8/23/25 7/21/26 15/22/27 16/24/28
f 1/4/29 8/23/30 16/24/31 9/6/32
f 10/8/33 9/6/34 17/49/35 18/50/36
f 11/12/37 10/8/38 18/50/39 19/51/40
f 12/16/41 11/12/42 19/51/43 20/52/44
f 13/18/45 12/16/46 20/52/47 21/53/48
f 14/20/49 13/18/50 21/53/51 22/54/52
f 15/22/53 14/20/54 22/54/55 23/55/56
f 16/24/57 15/22/58 23/55/59 24/56/60
f 9/6/61 16/24/62 24/56/63 17/49/64
f 18/50/65 17/49/66 25/57/67 26/58/68
f 19/51/69 18/50/70 26/58/71 27/59/72
f 20/52/73 19/51/74 27/59/75 28/60/76
f 21/53/77 20/52/78 28/60/79 29/61/80
f 22/54/81 21/53/82 29/61/83 30/62/84
f 23/55/85 22/54/86 30/62/87 31/63/88
f 24/56/89 23/55/90 31/63/91 32/64/92
f 17/49/93 24/56/94 32/64/95 25/57/96
f 26/1/97 25/2/98 33/5/99 34/7/100
f 27/9/101 26/1/102 34/7/103 35/11/104
f 28/13/105 27/9/106 35/11/107 36/15/108
f 29/25/109 28/13/110 36/15/111 37/26/112
f 30/27/113 29/25/114 37/26/115 38/28/116
f 31/29/117 30/27/118 38/28/119 39/30/120
f 32/31/121 31/29/122 39/30/123 40/32/124
f 25/2/125 32/31/126 40/32/127 33/5/128
f 34/7/129 33/5/130 41/33/131 42/34/132
f 35/11/133 34/7/134 42/34/135 43/35/136
f 36/15/137 35/11/138 43/35/139 44/36/140
f 37/26/141 36/15/142 44/36/143 45/37/144
f 38/28/145 37/26/146 45/37/147 46/38/148
f 39/30/149 38/28/150 46/38/151 47/39/152
f 40/32/153 39/30/154 47/39/155 48/40/156
f 33/5/157 40/32/158 48/40/159 41/33/160
f 42/34/161 41/33/162 1/41/163 2/42/164
f 43/35/165 42/34/166 2/42/167 3/43/168
f 44/36/169 43/35/170 3/43/171 4/44/172
f 45/37/173 44/36/174 4/44/175 5/45/176
f 46/38/177 45/37/178 5/45/179 6/46/180
f 47/39/181 46/38/182 6/46/183 7/47/184
f 48/40/185 47/39/186 7/47/187 8/48/188
f 41/33/189 48/40/190 8/48/191 1/41/192
