# This file uses centimeters as units for non-parametric coordinates.

mtllib box_sx.mtl
g default
v 0.572060 -0.001081 -0.999050
v -0.572060 -0.001081 -0.999050
v 0.761365 1.074407 -1.001882
v -0.761365 1.074406 -1.001882
v 0.761365 1.074407 0.000000
v -0.761365 1.074407 0.000000
v 0.761365 1.074407 1.001882
v -0.761365 1.074407 1.001882
v 0.572060 -0.001081 0.999050
v -0.572060 -0.001081 0.999050
v 0.572060 -0.001081 0.000000
v -0.572060 -0.001081 0.000000
v 0.424827 2.277768 -0.801506
v 0.424827 2.277768 0.000000
v -0.443233 2.277768 -0.801506
v -0.443233 2.277768 0.000000
v 0.424827 2.277768 0.801506
v -0.443233 2.277768 0.801506
v 0.133728 2.742682 -0.633586
v 0.133728 2.742682 -0.368296
v -0.152134 2.742682 -0.633586
v -0.152134 2.742682 -0.368296
v 0.133728 2.742682 0.368296
v 0.133728 2.742682 0.633586
v -0.152134 2.742682 0.368296
v -0.152134 2.742682 0.633586
vt 0.504148 0.506187
vt 0.715898 0.279077
vt 0.925704 0.608400
vt 0.636344 0.709612
vt 0.257764 0.723387
vt 0.296984 0.748195
vt 0.271926 0.787903
vt 0.232623 0.763043
vt 0.127090 0.641453
vt 0.166460 0.666023
vt 0.141641 0.705882
vt 0.102189 0.681260
vt 0.367942 0.060463
vt 0.255222 0.349791
vt 0.014335 0.317377
vt 0.013622 0.006307
vt 0.957464 0.809384
vt 0.982077 0.977145
vt 0.676939 0.997185
vt 0.655878 0.853630
vt 0.541929 0.169755
vt 0.379037 0.429020
vt 0.379029 0.649420
vt 0.455861 0.765980
vt 0.042393 0.507974
vt 0.180475 0.524673
vt 0.333106 0.801045
vt 0.280400 0.586016
vt 0.474563 0.880232
vt 0.346338 0.845137
vt 0.842570 0.166473
vt 0.796343 0.166473
vt 0.749269 0.041825
vt 0.889644 0.041825
vt 0.630890 0.166473
vt 0.583816 0.041825
vt 0.724191 0.041825
vt 0.677117 0.166473
vt 0.491412 0.995075
vt 0.367399 0.988691
vt 0.361822 0.950679
vt 0.072701 0.636136
vn 0.000000 0.084106 -0.996457
vn 0.000000 0.084106 -0.996457
vn 0.000000 0.084106 -0.996457
vn 0.000000 0.084106 -0.996457
vn 0.000002 1.000000 -0.000002
vn 0.000002 1.000000 -0.000002
vn 0.000002 1.000000 -0.000002
vn 0.000002 1.000000 -0.000002
vn 0.000000 1.000000 0.000000
vn 0.000000 1.000000 0.000000
vn 0.000000 1.000000 0.000000
vn 0.000000 1.000000 0.000000
vn 0.000000 0.084106 0.996457
vn 0.000000 0.084106 0.996457
vn 0.000000 0.084106 0.996457
vn 0.000000 0.084106 0.996457
vn -0.992010 0.126156 0.000000
vn -0.992010 0.126156 0.000000
vn -0.992010 0.126156 0.000000
vn -0.992010 0.126156 0.000000
vn -0.992010 0.126156 -0.000000
vn -0.992010 0.126156 -0.000000
vn -0.992010 0.126156 -0.000000
vn -0.992010 0.126156 -0.000000
vn 0.992010 0.126156 0.000000
vn 0.992010 0.126156 0.000000
vn 0.992010 0.126156 0.000000
vn 0.992010 0.126156 0.000000
vn 0.992010 0.126156 0.000000
vn 0.992010 0.126156 0.000000
vn 0.992010 0.126156 0.000000
vn 0.992010 0.126156 0.000000
vn -0.000000 0.164252 -0.986418
vn -0.000000 0.164252 -0.986418
vn -0.000000 0.164252 -0.986418
vn -0.000000 0.164252 -0.986418
vn 0.000000 0.164252 0.986418
vn 0.000000 0.164252 0.986418
vn 0.000000 0.164252 0.986418
vn 0.000000 0.164252 0.986418
vn 0.000000 0.205515 -0.978654
vn 0.000000 0.205515 -0.978654
vn 0.000000 0.205515 -0.978654
vn 0.000000 0.205515 -0.978654
vn 0.847379 0.530989 0.000000
vn 0.878544 0.477662 0.000000
vn 0.939671 0.342081 0.000000
vn 0.939671 0.342081 0.000000
vn -0.959413 0.282005 -0.000000
vn -0.959719 0.280961 -0.000000
vn -0.939671 0.342080 0.000000
vn -0.939671 0.342080 0.000000
vn 0.000000 0.418344 0.908289
vn 0.000000 0.418344 0.908289
vn 0.000000 0.418344 0.908289
vn 0.000000 0.418344 0.908289
vn 0.000000 0.418344 -0.908289
vn 0.000000 0.418344 -0.908289
vn 0.000000 0.418344 -0.908289
vn 0.000000 0.418344 -0.908289
vn 0.878544 0.477662 0.000000
vn 0.847379 0.530989 0.000000
vn 0.939671 0.342080 0.000000
vn 0.939671 0.342080 0.000000
vn -0.959719 0.280961 -0.000000
vn -0.959413 0.282005 0.000000
vn -0.939671 0.342080 0.000000
vn -0.939671 0.342080 0.000000
vn 0.000000 0.205515 0.978654
vn 0.000000 0.205515 0.978654
vn 0.000000 0.205515 0.978654
vn 0.000000 0.205515 0.978654
vn -0.959719 0.280961 -0.000000
vn -0.964938 0.262480 -0.000000
vn -0.964938 0.262480 0.000000
vn -0.959413 0.282005 0.000000
vn -0.959719 0.280961 -0.000000
vn -0.959413 0.282005 -0.000000
vn -0.964938 0.262480 -0.000000
vn -0.964938 0.262480 -0.000000
vn 0.963048 0.269330 0.000000
vn 0.963048 0.269330 0.000000
vn 0.963048 0.269330 0.000000
vn 0.963048 0.269330 0.000000
vn 0.963048 0.269330 0.000000
vn 0.963048 0.269330 0.000000
s off
g box_sx:pCube2
usemtl box_sx:initialShadingGroup
f 3/1/1 1/2/2 2/3/3 4/4/4
f 20/5/5 19/6/6 21/7/7 22/8/8
f 24/9/9 23/10/10 25/11/11 26/12/12
f 9/13/13 7/14/14 8/15/15 10/16/16
f 12/17/17 10/18/18 8/19/19 6/20/20
f 2/3/21 12/17/22 6/20/23 4/4/24
f 9/13/25 11/21/26 5/22/27 7/14/28
f 11/21/29 1/2/30 3/1/31 5/22/32
f 13/23/33 3/1/34 4/4/35 15/24/36
f 18/25/37 8/15/38 7/14/39 17/26/40
f 19/6/41 13/23/42 15/24/43 21/27/44
f 14/28/45 13/23/46 19/6/47 20/5/48
f 15/24/49 16/29/50 22/30/51 21/27/52
f 20/31/53 22/32/54 16/33/55 14/34/56
f 23/35/57 14/36/58 16/37/59 25/38/60
f 17/26/61 14/28/62 23/10/63 24/9/64
f 16/29/65 18/39/66 26/40/67 25/41/68
f 24/9/69 26/42/70 18/25/71 17/26/72
f 16/29/73 6/20/74 8/19/75 18/39/76
f 16/29/77 15/24/78 4/4/79 6/20/80
s 1
f 14/28/81 5/22/82 3/1/83 13/23/84
f 7/14/85 5/22/82 14/28/81 17/26/86
