# This file uses centimeters as units for non-parametric coordinates.

mtllib box_cake.mtl
g default
v -2.000956 0.005272 0.838320
v -0.844511 0.005272 1.994766
v -2.493038 1.995173 1.046991
v -1.053182 1.995173 2.486847
v 2.014881 0.005272 0.838320
v 0.858435 0.005272 1.994766
v 2.506962 1.995173 1.046991
v 1.067106 1.995173 2.486847
v -2.493038 1.995173 -1.073297
v -1.053182 1.995173 -2.513153
v -2.000956 0.005272 -0.864626
v -0.844511 0.005272 -2.021072
v 1.067106 1.995173 -2.513153
v 2.506962 1.995173 -1.073297
v 2.014881 0.005272 -0.864626
v 0.858435 0.005272 -2.021072
v -1.166945 2.302487 2.755121
v -2.761311 2.302487 1.160754
v 1.180869 2.302487 2.755121
v 2.775236 2.302487 1.160754
v 2.775236 2.302487 -1.187060
v 1.180869 2.302487 -2.781426
v -1.166945 2.302487 -2.781426
v -2.761311 2.302487 -1.187060
v -0.870378 3.154884 2.055763
v -2.061954 3.154884 0.864187
v 0.884302 3.154884 2.055763
v 2.075878 3.154884 0.864187
v 2.075878 3.154884 -0.890493
v 0.884302 3.154884 -2.082069
v -0.870378 3.154884 -2.082069
v -2.061954 3.154884 -0.890493
v -0.309970 3.631846 0.734229
v -0.740419 3.631846 0.303780
v 0.323895 3.631846 0.734229
v 0.754344 3.631846 0.303780
v 0.754344 3.631846 -0.330086
v 0.323895 3.631846 -0.760535
v -0.309970 3.631846 -0.760535
v -0.740419 3.631846 -0.330086
vt 0.403553 0.540310
vt 0.459510 0.484353
vt 0.376197 0.156094
vt 0.376197 0.018676
vt 0.499949 0.018676
vt 0.499949 0.156094
vt 0.015274 0.018676
vt 0.015274 0.156094
vt 0.860871 0.156094
vt 0.618534 0.156094
vt 0.618534 0.018676
vt 0.742286 0.018676
vt 0.742286 0.156094
vt 0.133860 0.156094
vt 0.133860 0.018676
vt 0.257612 0.018676
vt 0.257612 0.156094
vt 0.541911 0.484353
vt 0.597868 0.540310
vt 0.597868 0.622710
vt 0.541911 0.678667
vt 0.459510 0.678667
vt 0.403553 0.622710
vt 0.110969 0.416237
vt 0.335438 0.191768
vt 0.348106 0.221643
vt 0.140843 0.428906
vt 0.665983 0.191768
vt 0.653315 0.221643
vt 0.890452 0.416237
vt 0.860577 0.428906
vt 0.890452 0.746783
vt 0.860577 0.734114
vt 0.665983 0.971252
vt 0.653315 0.941377
vt 0.335438 0.971252
vt 0.348106 0.941377
vt 0.110969 0.746783
vt 0.140843 0.734114
vt 0.386659 0.312557
vt 0.231758 0.467458
vt 0.614762 0.312557
vt 0.769663 0.467458
vt 0.769663 0.695562
vt 0.614762 0.850463
vt 0.386659 0.850463
vt 0.231758 0.695562
vt 0.984623 0.156094
vt 0.860871 0.018676
vt 0.984623 0.018676
vn 0.000000 -0.240058 0.970759
vn 0.000000 -0.240058 0.970759
vn 0.000000 -0.240058 0.970759
vn 0.000000 -0.240058 0.970759
vn 0.000000 -0.240058 -0.970759
vn 0.000000 -0.240058 -0.970759
vn 0.000000 -0.240058 -0.970759
vn 0.000000 -0.240058 -0.970759
vn 0.970759 -0.240058 0.000000
vn 0.970759 -0.240058 0.000000
vn 0.970759 -0.240058 0.000000
vn 0.970759 -0.240058 0.000000
vn -0.970759 -0.240058 0.000000
vn -0.970759 -0.240058 0.000000
vn -0.970759 -0.240058 0.000000
vn -0.970759 -0.240058 0.000000
vn 0.000000 1.000000 0.000000
vn 0.000000 1.000000 0.000000
vn 0.000000 1.000000 0.000000
vn 0.000000 1.000000 0.000000
vn 0.000000 1.000000 0.000000
vn 0.000000 1.000000 0.000000
vn 0.000000 1.000000 0.000000
vn 0.000000 1.000000 0.000000
vn -0.686154 -0.241632 0.686154
vn -0.686154 -0.241632 0.686154
vn -0.686154 -0.241632 0.686154
vn -0.686154 -0.241632 0.686154
vn 0.686154 -0.241632 0.686154
vn 0.686154 -0.241632 0.686154
vn 0.686154 -0.241632 0.686154
vn 0.686154 -0.241632 0.686154
vn -0.686154 -0.241632 -0.686154
vn -0.686154 -0.241632 -0.686154
vn -0.686154 -0.241632 -0.686154
vn -0.686154 -0.241632 -0.686154
vn 0.686154 -0.241632 -0.686154
vn 0.686154 -0.241632 -0.686154
vn 0.686154 -0.241632 -0.686154
vn 0.686154 -0.241632 -0.686154
vn -0.531088 -0.660220 0.531088
vn -0.531088 -0.660220 0.531088
vn -0.531088 -0.660220 0.531088
vn -0.531088 -0.660220 0.531088
vn 0.000000 -0.657634 0.753338
vn 0.000000 -0.657634 0.753338
vn 0.000000 -0.657634 0.753338
vn 0.000000 -0.657634 0.753338
vn 0.531088 -0.660220 0.531088
vn 0.531088 -0.660220 0.531088
vn 0.531088 -0.660220 0.531088
vn 0.531088 -0.660220 0.531088
vn 0.753338 -0.657634 0.000000
vn 0.753338 -0.657634 0.000000
vn 0.753338 -0.657634 0.000000
vn 0.753338 -0.657634 0.000000
vn 0.531088 -0.660220 -0.531088
vn 0.531088 -0.660220 -0.531088
vn 0.531088 -0.660220 -0.531088
vn 0.531088 -0.660220 -0.531088
vn 0.000000 -0.657634 -0.753338
vn 0.000000 -0.657634 -0.753338
vn 0.000000 -0.657634 -0.753338
vn 0.000000 -0.657634 -0.753338
vn -0.531088 -0.660220 -0.531088
vn -0.531088 -0.660220 -0.531088
vn -0.531088 -0.660220 -0.531088
vn -0.531088 -0.660220 -0.531088
vn -0.753338 -0.657634 0.000000
vn -0.753338 -0.657634 0.000000
vn -0.753338 -0.657634 0.000000
vn -0.753338 -0.657634 0.000000
vn -0.545130 0.636920 0.545130
vn -0.545130 0.636920 0.545130
vn -0.545130 0.636920 0.545130
vn -0.545130 0.636920 0.545130
vn 0.000000 0.634292 0.773094
vn 0.000000 0.634292 0.773094
vn 0.000000 0.634292 0.773094
vn 0.000000 0.634292 0.773094
vn 0.545130 0.636920 0.545130
vn 0.545130 0.636920 0.545130
vn 0.545130 0.636920 0.545130
vn 0.545130 0.636920 0.545130
vn 0.773094 0.634292 0.000000
vn 0.773094 0.634292 0.000000
vn 0.773094 0.634292 0.000000
vn 0.773094 0.634292 0.000000
vn 0.545130 0.636920 -0.545130
vn 0.545130 0.636920 -0.545130
vn 0.545130 0.636920 -0.545130
vn 0.545130 0.636920 -0.545130
vn 0.000000 0.634292 -0.773094
vn 0.000000 0.634292 -0.773094
vn 0.000000 0.634292 -0.773094
vn 0.000000 0.634292 -0.773094
vn -0.545130 0.636920 -0.545130
vn -0.545130 0.636920 -0.545130
vn -0.545130 0.636920 -0.545130
vn -0.545130 0.636920 -0.545130
vn -0.773094 0.634292 0.000000
vn -0.773094 0.634292 0.000000
vn -0.773094 0.634292 0.000000
vn -0.773094 0.634292 0.000000
vn -0.238580 0.941360 0.238580
vn -0.238580 0.941360 0.238580
vn -0.238580 0.941360 0.238580
vn -0.238580 0.941360 0.238580
vn 0.000000 0.940613 0.339482
vn 0.000000 0.940613 0.339482
vn 0.000000 0.940613 0.339482
vn 0.000000 0.940613 0.339482
vn 0.238580 0.941360 0.238580
vn 0.238580 0.941360 0.238580
vn 0.238580 0.941360 0.238580
vn 0.238580 0.941360 0.238580
vn 0.339482 0.940613 0.000000
vn 0.339482 0.940613 0.000000
vn 0.339482 0.940613 0.000000
vn 0.339482 0.940613 0.000000
vn 0.238580 0.941360 -0.238580
vn 0.238580 0.941360 -0.238580
vn 0.238580 0.941360 -0.238580
vn 0.238580 0.941360 -0.238580
vn 0.000000 0.940613 -0.339482
vn 0.000000 0.940613 -0.339482
vn 0.000000 0.940613 -0.339482
vn 0.000000 0.940613 -0.339482
vn -0.238580 0.941360 -0.238580
vn -0.238580 0.941360 -0.238580
vn -0.238580 0.941360 -0.238580
vn -0.238580 0.941360 -0.238580
vn -0.339482 0.940613 0.000000
vn -0.339482 0.940613 0.000000
vn -0.339482 0.940613 0.000000
vn -0.339482 0.940613 0.000000
s off
g pCube8
usemtl initialShadingGroup
f 4/3/1 2/4/2 6/5/3 8/6/4
f 12/50/5 10/48/6 13/9/7 16/49/8
f 7/10/9 5/11/10 15/12/11 14/13/12
f 9/14/13 11/15/14 1/16/15 3/17/16
f 34/1/17 33/2/18 35/18/19 36/19/20 37/20/21 38/21/22 39/22/23 40/23/24
f 1/16/25 2/4/26 4/3/27 3/17/28
f 6/5/29 5/11/30 7/10/31 8/6/32
f 9/14/33 10/8/34 12/7/35 11/15/36
f 13/9/37 14/13/38 15/12/39 16/49/40
f 3/24/41 4/25/42 17/26/43 18/27/44
f 4/25/45 8/28/46 19/29/47 17/26/48
f 8/28/49 7/30/50 20/31/51 19/29/52
f 7/30/53 14/32/54 21/33/55 20/31/56
f 14/32/57 13/34/58 22/35/59 21/33/60
f 13/34/61 10/36/62 23/37/63 22/35/64
f 10/36/65 9/38/66 24/39/67 23/37/68
f 9/38/69 3/24/70 18/27/71 24/39/72
f 18/27/73 17/26/74 25/40/75 26/41/76
f 17/26/77 19/29/78 27/42/79 25/40/80
f 19/29/81 20/31/82 28/43/83 27/42/84
f 20/31/85 21/33/86 29/44/87 28/43/88
f 21/33/89 22/35/90 30/45/91 29/44/92
f 22/35/93 23/37/94 31/46/95 30/45/96
f 23/37/97 24/39/98 32/47/99 31/46/100
f 24/39/101 18/27/102 26/41/103 32/47/104
f 26/41/105 25/40/106 33/2/107 34/1/108
f 25/40/109 27/42/110 35/18/111 33/2/112
f 27/42/113 28/43/114 36/19/115 35/18/116
f 28/43/117 29/44/118 37/20/119 36/19/120
f 29/44/121 30/45/122 38/21/123 37/20/124
f 30/45/125 31/46/126 39/22/127 38/21/128
f 31/46/129 32/47/130 40/23/131 39/22/132
f 32/47/133 26/41/134 34/1/135 40/23/136
