# This file uses centimeters as units for non-parametric coordinates.

mtllib box_icecream.mtl
g default
v 1.055204 3.371825 1.055204
v -1.055204 3.371825 1.055204
v -1.055204 3.371825 -1.055204
v 1.055204 3.371825 -1.055204
v -0.000000 0.000000 -0.000000
v 1.231072 3.568275 -1.231072
v 1.231072 3.568275 1.231071
v -1.231072 3.568275 -1.231072
v -1.231071 3.568275 1.231072
v 1.005375 4.343861 -1.005375
v 1.005375 4.343861 1.005375
v -1.005375 4.343861 -1.005375
v -1.005375 4.343861 1.005375
v 0.687007 4.755697 -0.687006
v 0.687007 4.755697 0.687006
v -0.687006 4.755697 -0.687006
v -0.687006 4.755697 0.687007
v 0.357244 4.995109 -0.357243
v 0.357244 4.995109 0.357243
v -0.357243 4.995109 -0.357243
v -0.357243 4.995109 0.357243
vt 0.479257 0.292546
vt 0.321474 0.408523
vt 0.996463 0.126870
vt 0.910951 0.408523
vt 0.753169 0.292547
vt 0.914521 0.431219
vt 0.730441 0.295913
vt 0.501984 0.295913
vt 0.297598 0.441966
vt 0.317904 0.431219
vt 0.859831 0.470263
vt 0.709499 0.359763
vt 0.522926 0.359763
vt 0.372594 0.470263
vt 0.811110 0.486668
vt 0.708384 0.411160
vt 0.524041 0.411160
vt 0.421315 0.486668
vt 0.765510 0.497042
vt 0.712092 0.457778
vt 0.520333 0.457778
vt 0.466915 0.497042
vt 0.583202 0.437203
vt 0.649223 0.437203
vt 0.649086 0.502950
vt 0.583339 0.502950
vt 0.239152 0.628862
vt 0.003441 0.452564
vt 0.714123 0.279740
vt 0.518302 0.279740
vt 0.408767 0.614048
vt 0.616213 0.002153
vt 0.365881 0.632696
vt 0.249717 0.649264
vt 0.428554 0.550774
vt 0.235963 0.126870
vt 0.403933 0.511015
vt 0.316908 0.648333
vt 0.679959 0.401837
vt 0.552466 0.401837
vn 0.000000 1.000000 -0.000001
vn 0.000000 1.000000 -0.000001
vn 0.000000 1.000000 -0.000001
vn 0.000000 1.000000 -0.000001
vn 0.000000 -0.298664 0.954358
vn 0.000000 -0.298664 0.954358
vn 0.000000 -0.298664 0.954358
vn -0.954358 -0.298664 0.000000
vn -0.954358 -0.298664 0.000000
vn -0.954358 -0.298664 0.000000
vn 0.000000 -0.298664 -0.954358
vn 0.000000 -0.298664 -0.954358
vn 0.000000 -0.298664 -0.954358
vn 0.954358 -0.298664 -0.000000
vn 0.954358 -0.298664 -0.000000
vn 0.954358 -0.298664 -0.000000
vn 0.745059 -0.666998 0.000000
vn 0.745059 -0.666998 0.000000
vn 0.745059 -0.666998 0.000000
vn 0.745059 -0.666998 0.000000
vn 0.000000 -0.666998 -0.745060
vn 0.000000 -0.666998 -0.745060
vn 0.000000 -0.666998 -0.745060
vn 0.000000 -0.666998 -0.745060
vn -0.745059 -0.666998 0.000000
vn -0.745059 -0.666998 0.000000
vn -0.745059 -0.666998 0.000000
vn -0.745059 -0.666998 0.000000
vn 0.000000 -0.666998 0.745060
vn 0.000000 -0.666998 0.745060
vn 0.000000 -0.666998 0.745060
vn 0.000000 -0.666998 0.745060
vn 0.960171 0.279412 -0.000000
vn 0.960171 0.279412 -0.000000
vn 0.960171 0.279412 -0.000000
vn 0.960171 0.279412 -0.000000
vn 0.000000 0.279412 -0.960171
vn 0.000000 0.279412 -0.960171
vn 0.000000 0.279412 -0.960171
vn 0.000000 0.279412 -0.960171
vn -0.960171 0.279412 0.000000
vn -0.960171 0.279412 0.000000
vn -0.960171 0.279412 0.000000
vn -0.960171 0.279412 0.000000
vn 0.000000 0.279412 0.960171
vn 0.000000 0.279412 0.960171
vn 0.000000 0.279412 0.960171
vn 0.000000 0.279412 0.960171
vn 0.791163 0.611605 -0.000000
vn 0.791163 0.611605 -0.000000
vn 0.791163 0.611605 -0.000000
vn 0.791163 0.611605 -0.000000
vn 0.000000 0.611605 -0.791163
vn 0.000000 0.611605 -0.791163
vn 0.000000 0.611605 -0.791163
vn 0.000000 0.611605 -0.791163
vn -0.791163 0.611605 0.000000
vn -0.791163 0.611605 0.000000
vn -0.791163 0.611605 0.000000
vn -0.791163 0.611605 0.000000
vn 0.000000 0.611605 0.791163
vn 0.000000 0.611605 0.791163
vn 0.000000 0.611605 0.791163
vn 0.000000 0.611605 0.791163
vn 0.587503 0.809222 -0.000000
vn 0.587503 0.809222 -0.000000
vn 0.587503 0.809222 -0.000000
vn 0.587503 0.809222 -0.000000
vn -0.000000 0.809222 -0.587503
vn -0.000000 0.809222 -0.587503
vn -0.000000 0.809222 -0.587503
vn -0.000000 0.809222 -0.587503
vn -0.587503 0.809222 0.000000
vn -0.587503 0.809222 0.000000
vn -0.587503 0.809222 0.000000
vn -0.587503 0.809222 0.000000
vn 0.000000 0.809221 0.587504
vn 0.000000 0.809221 0.587504
vn 0.000000 0.809221 0.587504
vn 0.000000 0.809221 0.587504
s off
g pPyramid1
usemtl initialShadingGroup
f 19/23/1 18/24/2 20/25/3 21/26/4
f 1/1/5 2/2/6 5/36/7
f 2/9/8 3/27/9 5/28/10
f 3/4/11 4/5/12 5/3/13
f 4/29/14 1/30/15 5/32/16
f 1/30/17 4/29/18 6/7/19 7/8/20
f 4/5/21 3/4/22 8/6/23 6/7/24
f 3/27/25 2/9/26 9/10/27 8/34/28
f 2/2/29 1/1/30 7/8/31 9/10/32
f 7/8/33 6/7/34 10/12/35 11/13/36
f 6/7/37 8/6/38 12/11/39 10/12/40
f 8/34/41 9/10/42 13/14/43 12/38/44
f 9/10/45 7/8/46 11/13/47 13/14/48
f 11/13/49 10/12/50 14/39/51 15/40/52
f 10/12/53 12/11/54 16/15/55 14/16/56
f 12/38/57 13/14/58 17/37/59 16/33/60
f 13/14/61 11/13/62 15/17/63 17/18/64
f 15/40/65 14/39/66 18/24/67 19/23/68
f 14/16/69 16/15/70 20/19/71 18/20/72
f 16/33/73 17/37/74 21/35/75 20/31/76
f 17/18/77 15/17/78 19/21/79 21/22/80
