# This file uses centimeters as units for non-parametric coordinates.

mtllib box_littlestone.mtl
g default
v -1.997265 0.000870 1.987366
v 2.002735 0.000870 1.987366
v -1.486537 3.003364 1.476639
v 1.492008 3.003364 1.476639
v -1.486537 3.003364 -1.501906
v 1.492008 3.003364 -1.501906
v -1.997265 0.000870 -2.012634
v 2.002735 0.000870 -2.012634
vt 0.979687 0.299491
vt 0.979687 0.702782
vt 0.347111 0.350510
vt 0.648362 0.350510
vt 0.648362 0.651762
vt 0.347111 0.651762
vt 0.296091 0.024254
vt 0.699382 0.024254
vt 0.699382 0.978018
vt 0.296091 0.978018
vt 0.015786 0.702782
vt 0.015786 0.299490
vn 0.000000 0.167692 0.985839
vn 0.000000 0.167692 0.985839
vn 0.000000 0.167692 0.985839
vn 0.000000 0.167692 0.985839
vn 0.000000 1.000000 0.000000
vn 0.000000 1.000000 0.000000
vn 0.000000 1.000000 0.000000
vn 0.000000 1.000000 0.000000
vn 0.000000 0.167692 -0.985839
vn 0.000000 0.167692 -0.985839
vn 0.000000 0.167692 -0.985839
vn 0.000000 0.167692 -0.985839
vn 0.985839 0.167692 0.000000
vn 0.985839 0.167692 0.000000
vn 0.985839 0.167692 0.000000
vn 0.985839 0.167692 0.000000
vn -0.985839 0.167692 0.000000
vn -0.985839 0.167692 0.000000
vn -0.985839 0.167692 0.000000
vn -0.985839 0.167692 0.000000
s off
g pCube6
usemtl initialShadingGroup
f 1/7/1 2/8/2 4/4/3 3/3/4
f 3/3/5 4/4/6 6/5/7 5/6/8
f 5/6/9 6/5/10 8/9/11 7/10/12
f 2/1/13 8/2/14 6/5/15 4/4/16
f 7/11/17 1/12/18 3/3/19 5/6/20
