# This file uses centimeters as units for non-parametric coordinates.

mtllib box_sx2.mtl
g default
v -0.997137 -0.003254 0.764447
v -0.787527 -0.003254 0.974057
v -0.894608 1.698583 0.661539
v -0.684619 1.698583 0.871528
v 1.002863 -0.003254 0.764447
v 0.793253 -0.003254 0.974057
v 0.690345 1.698583 0.871528
v 0.900333 1.698583 0.661539
v -0.684619 1.698583 -0.923413
v -0.894608 1.698583 -0.713424
v -0.997137 -0.003254 -0.816332
v -0.787527 -0.003254 -1.025943
v 0.900333 1.698583 -0.713424
v 0.690345 1.698583 -0.923413
v 1.002863 -0.003254 -0.816332
v 0.793253 -0.003254 -1.025943
v -0.779343 1.698583 0.546653
v -0.569733 1.698583 0.756263
v 0.575459 1.698583 0.756263
v 0.785069 1.698583 0.546653
v 0.785069 1.698583 -0.598538
v 0.575459 1.698583 -0.808149
v -0.569733 1.698583 -0.808149
v -0.779343 1.698583 -0.598538
v -0.779343 1.802273 0.546653
v -0.569733 1.802273 0.756263
v 0.575459 1.802273 0.756263
v 0.785069 1.802273 0.546653
v 0.785069 1.802273 -0.598538
v 0.575459 1.802273 -0.808149
v -0.569733 1.802273 -0.808149
v -0.779343 1.802273 -0.598538
v -0.876658 1.802273 0.643968
v -0.667048 1.802273 0.853579
v 0.672774 1.802273 0.853579
v 0.882384 1.802273 0.643968
v 0.882384 1.802273 -0.695853
v 0.672774 1.802273 -0.905464
v -0.667048 1.802273 -0.905464
v -0.876658 1.802273 -0.695853
v -0.876658 2.073791 0.643968
v -0.667048 2.073791 0.853579
v 0.882384 2.073791 0.643968
v 0.672774 2.073791 0.853579
v 0.672774 2.073791 -0.905464
v 0.882384 2.073791 -0.695853
v -0.876658 2.073791 -0.695853
v -0.667048 2.073791 -0.905464
vt 0.142562 0.361649
vt 0.179665 0.360278
vt 0.324745 0.495014
vt 0.326117 0.532117
vt 0.191380 0.677197
vt 0.154277 0.678569
vt 0.009197 0.543832
vt 0.007826 0.506729
vt 0.782981 0.053995
vt 0.841219 0.487039
vt 0.822998 0.052516
vt 0.955620 0.175682
vt 0.860502 0.507774
vt 0.688998 0.648408
vt 0.380445 0.424135
vt 0.957099 0.215699
vt 0.833933 0.348320
vt 0.793916 0.349800
vt 0.661294 0.226634
vt 0.659815 0.186617
vt 0.325565 0.549196
vt 0.362736 0.547822
vt 0.490834 0.526652
vt 0.363455 0.568193
vt 0.669672 0.627642
vt 0.290330 0.029537
vt 0.314102 0.044921
vt 0.205504 0.238322
vt 0.181689 0.222910
vt 0.326352 0.569564
vt 0.488926 0.665016
vt 0.490300 0.702186
vt 0.469929 0.702905
vt 0.468558 0.665802
vt 0.209746 0.712557
vt 0.208372 0.675386
vt 0.228742 0.674667
vt 0.230114 0.711770
vt 0.373106 0.828377
vt 0.335936 0.829750
vt 0.335217 0.809380
vt 0.372320 0.808008
vt 0.646191 0.866601
vt 0.644819 0.829497
vt 0.662045 0.828860
vt 0.663417 0.865964
vt 0.539717 0.731888
vt 0.502613 0.733259
vt 0.501976 0.716033
vt 0.539080 0.714662
vt 0.405004 0.838362
vt 0.406376 0.875465
vt 0.389150 0.876102
vt 0.387778 0.838999
vt 0.511478 0.973075
vt 0.548581 0.971703
vt 0.549218 0.988929
vt 0.512115 0.990301
vt 0.322506 0.433650
vt 0.451656 0.553592
vt 0.475690 0.527713
vt 0.346540 0.407771
vt 0.543159 0.491651
vt 0.523841 0.470878
vt 0.676478 0.309963
vt 0.695768 0.330691
vt 0.385257 0.354641
vt 0.361440 0.339234
vt 0.493380 0.160939
vt 0.517149 0.176327
vt 0.634117 0.641312
vt 0.654865 0.660581
vt 0.645687 0.670464
vt 0.624939 0.651195
vt 0.234769 0.270442
vt 0.255517 0.289710
vt 0.246339 0.299594
vt 0.225591 0.280325
vt 0.368875 0.394983
vt 0.389623 0.414252
vt 0.794941 0.795011
vt 0.359696 0.404867
vt 0.500013 0.516769
vt 0.520761 0.536038
vt 0.511582 0.545921
vt 0.754923 0.835237
vt 0.629059 0.670148
vt 0.649807 0.689417
vt 0.625773 0.715296
vt 0.605025 0.696027
vt 0.172423 0.246067
vt 0.193171 0.265336
vt 0.169137 0.291215
vt 0.148389 0.271946
vt 0.325792 0.388502
vt 0.778957 0.809358
vt 0.756079 0.772978
vt 0.301758 0.414381
vt 0.765257 0.763095
vt 0.496438 0.546982
vt 0.472404 0.572861
vt 0.982296 0.676328
vn 0.000000 -1.000000 0.000000
vn 0.000000 -1.000000 0.000000
vn 0.000000 -1.000000 0.000000
vn 0.000000 -1.000000 0.000000
vn 0.000000 -1.000000 0.000000
vn 0.000000 -1.000000 0.000000
vn 0.000000 -1.000000 0.000000
vn 0.000000 -1.000000 0.000000
vn 0.000000 1.000000 0.000000
vn 0.000000 1.000000 0.000000
vn 0.000000 1.000000 0.000000
vn 0.000000 1.000000 0.000000
vn 0.000000 1.000000 0.000000
vn 0.000000 1.000000 0.000000
vn 0.000000 1.000000 0.000000
vn 0.000000 1.000000 0.000000
vn -0.704545 0.085049 0.704545
vn -0.704545 0.085049 0.704545
vn -0.704545 0.085049 0.704545
vn -0.704545 0.085049 0.704545
vn -0.000001 1.000000 0.000000
vn -0.000000 1.000000 0.000000
vn -0.000000 1.000000 0.000000
vn -0.000001 1.000000 0.000000
vn 0.704545 0.085049 0.704545
vn 0.704545 0.085049 0.704545
vn 0.704545 0.085049 0.704545
vn 0.704545 0.085049 0.704545
vn 0.000000 1.000000 0.000000
vn 0.000001 1.000000 0.000000
vn 0.000001 1.000000 0.000000
vn 0.000000 1.000000 0.000000
vn -0.000000 1.000000 -0.000000
vn -0.000001 1.000000 0.000000
vn -0.000001 1.000000 0.000000
vn -0.000000 1.000000 -0.000000
vn -0.704545 0.085049 -0.704545
vn -0.704545 0.085049 -0.704545
vn -0.704545 0.085049 -0.704545
vn -0.704545 0.085049 -0.704545
vn 0.000001 1.000000 -0.000000
vn 0.000000 1.000000 -0.000000
vn 0.000000 1.000000 -0.000000
vn 0.000001 1.000000 -0.000000
vn 0.704545 0.085049 -0.704545
vn 0.704545 0.085049 -0.704545
vn 0.704545 0.085049 -0.704545
vn 0.704545 0.085049 -0.704545
vn -0.707107 0.000000 0.707107
vn -0.707107 0.000000 0.707107
vn -0.707107 0.000000 0.707107
vn -0.707107 0.000000 0.707107
vn 0.707107 0.000000 0.707107
vn 0.707107 0.000000 0.707107
vn 0.707107 0.000000 0.707107
vn 0.707107 0.000000 0.707107
vn 0.707107 0.000000 -0.707107
vn 0.707107 0.000000 -0.707107
vn 0.707107 0.000000 -0.707107
vn 0.707107 0.000000 -0.707107
vn -0.707107 0.000000 -0.707107
vn -0.707107 0.000000 -0.707107
vn -0.707107 0.000000 -0.707107
vn -0.707107 0.000000 -0.707107
vn -0.000003 -1.000000 0.000000
vn -0.000000 -1.000000 0.000004
vn -0.000001 -1.000000 0.000003
vn -0.000003 -1.000000 0.000001
vn 0.000000 -1.000000 0.000004
vn 0.000003 -1.000000 0.000000
vn 0.000003 -1.000000 0.000001
vn 0.000001 -1.000000 0.000003
vn 0.000003 -1.000000 -0.000000
vn 0.000000 -1.000000 -0.000004
vn 0.000001 -1.000000 -0.000003
vn 0.000003 -1.000000 -0.000001
vn -0.000000 -1.000000 -0.000004
vn -0.000003 -1.000000 -0.000000
vn -0.000003 -1.000000 -0.000001
vn -0.000001 -1.000000 -0.000003
vn -0.707107 0.000000 0.707107
vn -0.707107 0.000000 0.707107
vn -0.707107 0.000000 0.707107
vn -0.707107 0.000000 0.707107
vn 0.707107 0.000000 0.707107
vn 0.707107 0.000000 0.707107
vn 0.707107 0.000000 0.707107
vn 0.707107 0.000000 0.707107
vn 0.707107 0.000000 -0.707107
vn 0.707107 0.000000 -0.707107
vn 0.707107 0.000000 -0.707107
vn 0.707107 0.000000 -0.707107
vn -0.707107 0.000000 -0.707107
vn -0.707107 0.000000 -0.707107
vn -0.707107 0.000000 -0.707107
vn -0.707107 0.000000 -0.707107
vn 0.000000 0.060137 0.998190
vn 0.000000 0.060137 0.998190
vn 0.000000 0.060137 0.998190
vn 0.000000 0.060137 0.998190
vn 0.000000 0.060137 -0.998190
vn 0.000000 0.060137 -0.998190
vn 0.000000 0.060137 -0.998190
vn 0.000000 0.060137 -0.998190
vn 0.998190 0.060137 0.000000
vn 0.998190 0.060137 0.000000
vn 0.998190 0.060137 0.000000
vn 0.998190 0.060137 0.000000
vn -0.998190 0.060137 0.000000
vn -0.998190 0.060137 0.000000
vn -0.998190 0.060137 0.000000
vn -0.998190 0.060137 0.000000
vn 0.000000 0.000000 1.000000
vn 0.000000 0.000000 1.000000
vn 0.000000 0.000000 1.000000
vn 0.000000 0.000000 1.000000
vn 1.000000 0.000000 0.000000
vn 1.000000 0.000000 0.000000
vn 1.000000 0.000000 0.000000
vn 1.000000 0.000000 0.000000
vn 0.000000 0.000000 -1.000000
vn 0.000000 0.000000 -1.000000
vn 0.000000 0.000000 -1.000000
vn 0.000000 0.000000 -1.000000
vn -1.000000 0.000000 0.000000
vn -1.000000 0.000000 0.000000
vn -1.000000 0.000000 0.000000
vn -1.000000 0.000000 0.000000
vn 0.000000 0.000000 1.000000
vn 0.000000 0.000000 1.000000
vn 0.000000 0.000000 1.000000
vn 0.000000 0.000000 1.000000
vn 1.000000 0.000000 0.000000
vn 1.000000 0.000000 0.000000
vn 1.000000 0.000000 0.000000
vn 1.000000 0.000000 0.000000
vn 0.000000 0.000000 -1.000000
vn 0.000000 0.000000 -1.000000
vn 0.000000 0.000000 -1.000000
vn 0.000000 0.000000 -1.000000
vn -1.000000 0.000000 0.000000
vn -1.000000 0.000000 0.000000
vn -1.000000 0.000000 0.000000
vn -1.000000 0.000000 0.000000
s off
g pCube3
usemtl initialShadingGroup
f 5/1/1 6/2/2 2/3/3 1/4/4 11/5/5 12/6/6 16/7/7 15/8/8
f 41/9/9 42/11/10 44/12/11 43/16/12 46/17/13 45/18/14 48/19/15 47/20/16
f 1/10/17 2/13/18 4/14/19 3/25/20
s 1
f 3/21/21 4/22/22 18/24/23 17/30/24
s off
f 6/26/25 5/27/26 8/28/27 7/29/28
s 1
f 7/31/29 8/32/30 20/33/31 19/34/32
f 9/35/33 10/36/34 24/37/35 23/38/36
s off
f 10/63/37 9/64/38 12/65/39 11/66/40
s 1
f 13/39/41 14/40/42 22/41/43 21/42/44
s off
f 14/67/45 13/68/46 15/69/47 16/70/48
f 17/71/49 18/72/50 26/73/51 25/74/52
f 19/75/53 20/76/54 28/77/55 27/78/56
f 21/79/57 22/80/58 30/15/59 29/82/60
f 23/83/61 24/84/62 32/85/63 31/23/64
s 3
f 25/43/65 26/44/66 34/45/67 33/46/68
f 27/47/69 28/48/70 36/49/71 35/50/72
f 29/51/73 30/52/74 38/53/75 37/54/76
f 31/55/77 32/56/78 40/57/79 39/58/80
s off
f 33/87/81 34/88/82 42/89/83 41/90/84
f 35/91/85 36/92/86 43/93/87 44/94/88
f 37/95/89 38/62/90 45/59/91 46/98/92
f 39/61/93 40/100/94 47/101/95 48/60/96
f 4/14/97 2/13/98 6/102/99 7/81/100
f 9/64/101 14/67/102 16/70/103 12/65/104
f 8/28/105 5/27/106 15/69/107 13/68/108
f 10/63/109 11/66/110 1/10/111 3/25/112
s 1
f 4/22/22 7/31/29 19/34/32 18/24/23
f 8/32/30 13/39/41 21/42/44 20/33/31
f 14/40/42 9/35/33 23/38/36 22/41/43
f 10/36/34 3/21/21 17/30/24 24/37/35
s off
f 18/72/113 19/99/114 27/97/115 26/73/116
f 20/76/117 21/79/118 29/82/119 28/77/120
f 22/80/121 23/83/122 31/23/123 30/15/124
f 24/84/125 17/71/126 25/74/127 32/85/128
s 3
f 26/44/66 27/47/69 35/50/72 34/45/67
f 28/48/70 29/51/73 37/54/76 36/49/71
f 30/52/74 31/55/77 39/58/80 38/53/75
f 32/56/78 25/43/65 33/46/68 40/57/79
s off
f 34/88/129 35/96/130 44/86/131 42/89/132
f 36/92/133 37/95/134 46/98/135 43/93/136
f 38/62/137 39/61/138 48/60/139 45/59/140
f 40/100/141 33/87/142 41/90/143 47/101/144
