# This file uses centimeters as units for non-parametric coordinates.

mtllib mfz_lv1.mtl
g default
v -0.165099 -0.112332 0.839269
v -0.217018 0.052226 0.828842
v -0.165398 0.216880 0.818447
v -0.000512 0.270787 0.815100
v 0.164472 0.217185 0.818553
v 0.216390 0.052627 0.828981
v 0.164770 -0.112027 0.839375
v -0.000116 -0.165934 0.842722
v 0.184993 -0.134452 0.804396
v -0.000074 -0.198979 0.808407
v 0.246396 0.050362 0.792731
v -0.185258 -0.134795 0.804278
v -0.246996 0.049905 0.792573
v -0.000526 0.299245 0.776896
v 0.184658 0.235062 0.781025
v -0.185593 0.234718 0.780907
v 0.150139 -0.104940 0.719336
v -0.000085 -0.157316 0.722592
v 0.199981 0.045079 0.709866
v -0.150405 -0.105218 0.719240
v -0.200518 0.044708 0.709738
v -0.000452 0.247102 0.697013
v 0.149867 0.195005 0.700365
v -0.150677 0.194726 0.700269
v 0.084990 -0.043035 0.690776
v -0.000150 -0.076648 0.692869
v 0.118461 0.043453 0.685318
v -0.085351 -0.043193 0.690721
v -0.118977 0.043233 0.685242
v -0.000367 0.163334 0.677691
v 0.084834 0.129879 0.679839
v -0.085508 0.129722 0.679785
v 0.040571 -0.138614 -1.548676
v 0.000643 -0.154378 -1.547694
v 0.000606 -0.100200 -1.584353
v 0.056267 -0.098054 -1.551235
v -0.039312 -0.138690 -1.548702
v -0.055081 -0.098160 -1.551271
v 0.000543 -0.041836 -1.554812
v 0.040499 -0.057524 -1.553805
v -0.039384 -0.057601 -1.553830
v -0.235623 -0.161030 1.186549
v -0.309720 0.073825 1.171667
v -0.000161 -0.237530 1.191477
v 0.235162 -0.160594 1.186700
v 0.308833 0.074398 1.171865
v 0.234736 0.309253 1.156983
v -0.000726 0.385752 1.152055
v -0.236049 0.308817 1.156832
v -0.235677 -0.152105 1.327663
v -0.309774 0.082750 1.312781
v -0.000214 -0.228605 1.332591
v 0.235109 -0.151669 1.327814
v 0.308780 0.083323 1.312979
v 0.234683 0.318178 1.298097
v -0.000779 0.394678 1.293170
v -0.236103 0.317742 1.297947
v -0.000599 0.100206 1.584353
vt 0.339160 0.193646
vt 0.368607 0.182175
vt 0.368606 0.223220
vt 0.327561 0.223221
vt 0.398053 0.193645
vt 0.409651 0.223219
vt 0.368605 0.264265
vt 0.339158 0.252795
vt 0.398051 0.252793
vt 0.729303 0.156947
vt 0.647329 0.156947
vt 0.647329 0.133905
vt 0.729303 0.133905
vt 0.811277 0.156947
vt 0.811277 0.133905
vt 0.565355 0.156947
vt 0.565355 0.133905
vt 0.483381 0.156947
vt 0.483381 0.133905
vt 0.319434 0.156947
vt 0.893250 0.156947
vt 0.319434 0.133905
vt 0.401408 0.156947
vt 0.401408 0.133905
vt 0.647329 0.081257
vt 0.725388 0.081257
vt 0.803446 0.081257
vt 0.569270 0.081257
vt 0.491212 0.081257
vt 0.335094 0.081257
vt 0.413153 0.081257
vt 0.077082 0.007176
vt 0.110960 0.007173
vt 0.111085 0.945371
vt 0.077166 0.945372
vt 0.042479 0.007178
vt 0.042474 0.945373
vt 0.144863 0.007169
vt 0.144952 0.945369
vt 0.483044 0.470977
vt 0.563639 0.470977
vt 0.563639 0.592251
vt 0.483044 0.592251
vt 0.646445 0.470977
vt 0.646445 0.592251
vt 0.729251 0.470977
vt 0.729251 0.592251
vt 0.812057 0.470977
vt 0.812057 0.592251
vt 0.894863 0.470977
vt 0.894863 0.592251
vt 0.317429 0.470977
vt 0.317429 0.592251
vt 0.400396 0.470977
vt 0.400396 0.592251
vt 0.563639 0.643478
vt 0.483031 0.643479
vt 0.646445 0.643478
vt 0.729251 0.643478
vt 0.812057 0.643478
vt 0.894863 0.643478
vt 0.317487 0.643479
vt 0.400100 0.643479
vt 0.977669 0.470977
vt 0.977669 0.592251
vt 0.977669 0.643478
vt 0.387292 0.808424
vt 0.420031 0.705116
vt 0.524336 0.808424
vt 0.524336 0.671380
vt 0.628641 0.705116
vt 0.661380 0.808424
vt 0.628641 0.911731
vt 0.524336 0.945468
vt 0.420031 0.911731
vt 0.647330 0.038157
vt 0.719627 0.038157
vt 0.793505 0.038157
vt 0.575032 0.038157
vt 0.501153 0.038157
vt 0.354977 0.038157
vt 0.427274 0.038157
vt 0.975224 0.156947
vt 0.975224 0.133905
vt 0.893250 0.133905
vt 0.959563 0.081257
vt 0.881505 0.081257
vt 0.867383 0.038157
vt 0.939679 0.038157
vt 0.179523 0.007168
vt 0.179526 0.945368
vt 0.248086 0.007173
vt 0.007876 0.007176
vt 0.007786 0.945372
vt 0.214183 0.007169
vt 0.281874 0.945372
vt 0.247963 0.945371
vt 0.281964 0.007176
vt 0.214099 0.945369
vt 0.368607 0.182175
vt 0.368606 0.223220
vt 0.327561 0.223221
vt 0.409651 0.223219
vt 0.368606 0.223220
vt 0.368606 0.223220
vt 0.368605 0.264265
vn 0.358675 -0.407033 -0.840046
vn 0.358675 -0.407033 -0.840046
vn 0.358675 -0.407033 -0.840046
vn 0.358675 -0.407033 -0.840046
vn -0.357368 -0.407690 -0.840283
vn -0.357368 -0.407690 -0.840283
vn -0.357368 -0.407690 -0.840283
vn -0.357368 -0.407690 -0.840283
vn 0.358020 0.298588 -0.884685
vn 0.358020 0.298588 -0.884685
vn 0.358020 0.298588 -0.884685
vn 0.358020 0.298588 -0.884685
vn -0.358019 0.297941 -0.884903
vn -0.358019 0.297941 -0.884903
vn -0.358019 0.297941 -0.884903
vn -0.358019 0.297941 -0.884903
vn 0.256187 -0.716691 0.648631
vn 0.256187 -0.716691 0.648631
vn 0.256187 -0.716691 0.648631
vn 0.256187 -0.716691 0.648631
vn 0.763798 -0.208462 0.610865
vn 0.763798 -0.208462 0.610865
vn 0.763798 -0.208462 0.610865
vn 0.763798 -0.208462 0.610865
vn -0.255273 -0.717165 0.648467
vn -0.255273 -0.717165 0.648467
vn -0.255273 -0.717165 0.648467
vn -0.255273 -0.717165 0.648467
vn -0.763801 -0.209877 0.610377
vn -0.763801 -0.209877 0.610377
vn -0.763802 -0.209876 0.610376
vn -0.763802 -0.209876 0.610376
vn 0.254818 0.793163 0.553136
vn 0.254818 0.793163 0.553136
vn 0.254818 0.793163 0.553136
vn 0.254818 0.793163 0.553136
vn 0.763352 0.285143 0.579645
vn 0.763352 0.285143 0.579645
vn 0.763352 0.285143 0.579645
vn 0.763352 0.285143 0.579645
vn -0.764248 0.283728 0.579157
vn -0.764248 0.283728 0.579157
vn -0.764248 0.283728 0.579157
vn -0.764248 0.283728 0.579157
vn -0.256642 0.792689 0.552973
vn -0.256642 0.792689 0.552973
vn -0.256642 0.792689 0.552973
vn -0.256642 0.792689 0.552973
vn 0.291014 -0.860639 -0.417865
vn 0.291014 -0.860639 -0.417865
vn 0.291014 -0.860639 -0.417865
vn 0.291014 -0.860639 -0.417865
vn 0.838534 -0.307007 -0.450120
vn 0.838534 -0.307007 -0.450120
vn 0.838534 -0.307007 -0.450120
vn 0.838534 -0.307007 -0.450120
vn -0.289151 -0.861177 -0.418050
vn -0.289151 -0.861177 -0.418050
vn -0.289151 -0.861177 -0.418050
vn -0.289151 -0.861176 -0.418051
vn -0.837675 -0.308560 -0.450656
vn -0.837675 -0.308560 -0.450656
vn -0.837675 -0.308560 -0.450656
vn -0.837675 -0.308560 -0.450656
vn 0.289508 0.801657 -0.523002
vn 0.289508 0.801657 -0.523002
vn 0.289508 0.801657 -0.523002
vn 0.289508 0.801657 -0.523002
vn 0.838029 0.249363 -0.485309
vn 0.838029 0.249363 -0.485309
vn 0.838029 0.249363 -0.485309
vn 0.838029 0.249363 -0.485309
vn -0.838179 0.247809 -0.485845
vn -0.838179 0.247809 -0.485845
vn -0.838179 0.247809 -0.485845
vn -0.838179 0.247809 -0.485845
vn -0.290658 0.801119 -0.523188
vn -0.290658 0.801119 -0.523188
vn -0.290658 0.801119 -0.523188
vn -0.290658 0.801119 -0.523188
vn 0.101577 -0.336278 -0.936269
vn 0.101577 -0.336278 -0.936269
vn 0.101577 -0.336278 -0.936269
vn 0.101577 -0.336278 -0.936269
vn 0.278218 -0.157802 -0.947467
vn 0.278218 -0.157802 -0.947467
vn 0.278218 -0.157802 -0.947467
vn 0.278218 -0.157802 -0.947467
vn -0.100355 -0.336464 -0.936334
vn -0.100355 -0.336464 -0.936334
vn -0.100355 -0.336464 -0.936334
vn -0.100355 -0.336464 -0.936334
vn -0.277315 -0.158318 -0.947645
vn -0.277315 -0.158318 -0.947645
vn -0.277315 -0.158318 -0.947645
vn -0.277315 -0.158318 -0.947645
vn 0.101079 0.215818 -0.971188
vn 0.101079 0.215818 -0.971188
vn 0.101079 0.215818 -0.971188
vn 0.101079 0.215818 -0.971188
vn 0.278038 0.037676 -0.959831
vn 0.278038 0.037676 -0.959831
vn 0.278038 0.037676 -0.959831
vn 0.278038 0.037676 -0.959831
vn -0.277493 0.037161 -0.960009
vn -0.277493 0.037161 -0.960009
vn -0.277493 0.037161 -0.960009
vn -0.277493 0.037161 -0.960009
vn -0.100855 0.215635 -0.971252
vn -0.100855 0.215635 -0.971252
vn -0.100855 0.215635 -0.971252
vn -0.100855 0.215635 -0.971252
vn 0.367823 -0.928467 0.051538
vn 0.367823 -0.928467 0.051538
vn 0.367823 -0.928467 0.051538
vn 0.367823 -0.928467 0.051538
vn 0.932820 -0.359992 0.015873
vn 0.932820 -0.359992 0.015873
vn 0.932820 -0.359992 0.015873
vn 0.932820 -0.359992 0.015873
vn -0.366123 -0.929151 0.051302
vn -0.366123 -0.929151 0.051302
vn -0.366123 -0.929151 0.051302
vn -0.366123 -0.929151 0.051302
vn -0.932167 -0.361707 0.015273
vn -0.932167 -0.361707 0.015273
vn -0.932167 -0.361707 0.015273
vn -0.932167 -0.361707 0.015273
vn 0.366119 0.928232 -0.065890
vn 0.366119 0.928232 -0.065890
vn 0.366119 0.928232 -0.065890
vn 0.366119 0.928232 -0.065890
vn 0.932175 0.360786 -0.029713
vn 0.932175 0.360786 -0.029713
vn 0.932175 0.360786 -0.029713
vn 0.932175 0.360786 -0.029713
vn -0.932816 0.359077 -0.030314
vn -0.932816 0.359077 -0.030314
vn -0.932816 0.359077 -0.030314
vn -0.932816 0.359077 -0.030314
vn -0.367822 0.927542 -0.066127
vn -0.367822 0.927542 -0.066127
vn -0.367822 0.927542 -0.066127
vn -0.367822 0.927542 -0.066127
vn -0.746536 -0.273955 -0.606327
vn -0.746536 -0.273955 -0.606327
vn -0.746536 -0.273955 -0.606327
vn -0.746536 -0.273955 -0.606327
vn -0.241576 -0.780680 -0.576350
vn -0.241576 -0.780680 -0.576350
vn -0.241576 -0.780680 -0.576350
vn -0.241576 -0.780680 -0.576350
vn 0.243392 -0.780231 -0.576195
vn 0.243392 -0.780231 -0.576195
vn 0.243392 -0.780231 -0.576195
vn 0.243392 -0.780231 -0.576195
vn 0.747430 -0.272572 -0.605849
vn 0.747430 -0.272572 -0.605849
vn 0.747430 -0.272572 -0.605849
vn 0.747430 -0.272572 -0.605849
vn 0.747006 0.195416 -0.635448
vn 0.747005 0.195416 -0.635449
vn 0.747006 0.195416 -0.635448
vn 0.747005 0.195416 -0.635449
vn 0.242048 0.701856 -0.669934
vn 0.242048 0.701856 -0.669934
vn 0.242048 0.701856 -0.669934
vn 0.242048 0.701856 -0.669934
vn -0.242920 0.701406 -0.670089
vn -0.242920 0.701406 -0.670089
vn -0.242920 0.701406 -0.670089
vn -0.242920 0.701406 -0.670089
vn -0.746960 0.194032 -0.635926
vn -0.746960 0.194032 -0.635926
vn -0.746960 0.194032 -0.635926
vn -0.746960 0.194032 -0.635926
vn -0.953833 -0.299760 0.018598
vn -0.953833 -0.299760 0.018598
vn -0.953833 -0.299760 0.018598
vn -0.953833 -0.299760 0.018598
vn -0.309573 -0.948987 0.059904
vn -0.309573 -0.948987 0.059904
vn -0.309573 -0.948987 0.059904
vn -0.309573 -0.948987 0.059904
vn 0.311293 -0.948412 0.060102
vn 0.311293 -0.948412 0.060102
vn 0.311293 -0.948412 0.060102
vn 0.311293 -0.948412 0.060102
vn 0.954375 -0.297991 0.019208
vn 0.954375 -0.297991 0.019208
vn 0.954375 -0.297991 0.019208
vn 0.954375 -0.297991 0.019208
vn 0.953833 0.299760 -0.018598
vn 0.953833 0.299760 -0.018598
vn 0.953833 0.299760 -0.018598
vn 0.953833 0.299760 -0.018598
vn 0.309573 0.948987 -0.059904
vn 0.309573 0.948987 -0.059904
vn 0.309573 0.948987 -0.059904
vn 0.309573 0.948987 -0.059904
vn -0.311293 0.948412 -0.060102
vn -0.311293 0.948412 -0.060102
vn -0.311293 0.948412 -0.060102
vn -0.311293 0.948412 -0.060102
vn -0.954375 0.297991 -0.019208
vn -0.954375 0.297991 -0.019208
vn -0.954375 0.297991 -0.019208
vn -0.954375 0.297991 -0.019208
vn -0.641434 -0.154760 0.751407
vn -0.641434 -0.154760 0.751407
vn -0.641434 -0.154760 0.751407
vn -0.207695 -0.588964 0.781015
vn -0.207695 -0.588964 0.781015
vn -0.207695 -0.588964 0.781015
vn 0.208287 -0.588578 0.781148
vn 0.208287 -0.588578 0.781148
vn 0.208287 -0.588578 0.781148
vn 0.641239 -0.153572 0.751816
vn 0.641239 -0.153572 0.751816
vn 0.641239 -0.153572 0.751816
vn 0.640875 0.248229 0.726403
vn 0.640875 0.248229 0.726403
vn 0.640875 0.248229 0.726403
vn 0.207134 0.682681 0.700744
vn 0.207134 0.682681 0.700744
vn 0.207134 0.682681 0.700744
vn -0.208847 0.682296 0.700611
vn -0.208847 0.682296 0.700611
vn -0.208847 0.682296 0.700611
vn -0.641798 0.247039 0.725994
vn -0.641798 0.247039 0.725994
vn -0.641798 0.247039 0.725994
s off
g box_mfz1:box_mfz:pCube1
usemtl lambert4SG
f 33/1/1 34/100/2 35/101/3 36/102/4
f 34/2/5 37/5/6 38/103/7 35/104/8
f 36/4/9 35/105/10 39/106/11 40/8/12
f 35/3/13 38/6/14 41/9/15 39/7/16
f 7/10/17 8/11/18 10/12/19 9/13/20
f 6/14/21 7/10/22 9/13/23 11/15/24
f 8/11/25 1/16/26 12/17/27 10/12/28
f 1/16/29 2/18/30 13/19/31 12/17/32
f 4/83/33 5/21/34 15/85/35 14/84/36
f 5/21/37 6/14/38 11/15/39 15/85/40
f 2/18/41 3/23/42 16/24/43 13/19/44
f 3/23/45 4/20/46 14/22/47 16/24/48
f 9/13/49 10/12/50 18/25/51 17/26/52
f 11/15/53 9/13/54 17/26/55 19/27/56
f 10/12/57 12/17/58 20/28/59 18/25/60
f 12/17/61 13/19/62 21/29/63 20/28/64
f 14/84/65 15/85/66 23/87/67 22/86/68
f 15/85/69 11/15/70 19/27/71 23/87/72
f 13/19/73 16/24/74 24/31/75 21/29/76
f 16/24/77 14/22/78 22/30/79 24/31/80
f 17/26/81 18/25/82 26/76/83 25/77/84
f 19/27/85 17/26/86 25/77/87 27/78/88
f 18/25/89 20/28/90 28/79/91 26/76/92
f 20/28/93 21/29/94 29/80/95 28/79/96
f 22/86/97 23/87/98 31/88/99 30/89/100
f 23/87/101 19/27/102 27/78/103 31/88/104
f 21/29/105 24/31/106 32/82/107 29/80/108
f 24/31/109 22/30/110 30/81/111 32/82/112
f 25/32/113 26/33/114 34/34/115 33/35/116
f 27/36/117 25/32/118 33/35/119 36/37/120
f 26/33/121 28/38/122 37/39/123 34/34/124
f 28/38/125 29/90/126 38/91/127 37/39/128
f 30/92/129 31/98/130 40/96/131 39/97/132
f 31/93/133 27/36/134 36/37/135 40/94/136
f 29/90/137 32/95/138 41/99/139 38/91/140
f 32/95/141 30/92/142 39/97/143 41/99/144
f 2/40/145 1/41/146 42/42/147 43/43/148
f 1/41/149 8/44/150 44/45/151 42/42/152
f 8/44/153 7/46/154 45/47/155 44/45/156
f 7/46/157 6/48/158 46/49/159 45/47/160
f 6/48/161 5/50/162 47/51/163 46/49/164
f 5/50/165 4/64/166 48/65/167 47/51/168
f 4/52/169 3/54/170 49/55/171 48/53/172
f 3/54/173 2/40/174 43/43/175 49/55/176
f 43/43/177 42/42/178 50/56/179 51/57/180
f 42/42/181 44/45/182 52/58/183 50/56/184
f 44/45/185 45/47/186 53/59/187 52/58/188
f 45/47/189 46/49/190 54/60/191 53/59/192
f 46/49/193 47/51/194 55/61/195 54/60/196
f 47/51/197 48/65/198 56/66/199 55/61/200
f 48/53/201 49/55/202 57/63/203 56/62/204
f 49/55/205 43/43/206 51/57/207 57/63/208
f 51/67/209 50/68/210 58/69/211
f 50/68/212 52/70/213 58/69/214
f 52/70/215 53/71/216 58/69/217
f 53/71/218 54/72/219 58/69/220
f 54/72/221 55/73/222 58/69/223
f 55/73/224 56/74/225 58/69/226
f 56/74/227 57/75/228 58/69/229
f 57/75/230 51/67/231 58/69/232
