# This file uses centimeters as units for non-parametric coordinates.

mtllib mfz_lv2.mtl
g mota_mfz_lv2:default1
v 0.103296 -0.162847 0.404642
v -0.069251 -0.171817 0.410174
v -0.215778 -0.080694 0.420654
v -0.226429 0.092167 0.431154
v -0.132881 0.238200 0.436425
v 0.039666 0.247170 0.430894
v 0.186194 0.156047 0.420413
v 0.196845 -0.016814 0.409913
v 0.209526 0.172661 0.384151
v 0.225377 -0.022365 0.372170
v 0.045931 0.278287 0.396080
v 0.116480 -0.185271 0.366449
v -0.078060 -0.198688 0.372492
v -0.257506 0.101964 0.396402
v -0.148609 0.264871 0.402123
v -0.241655 -0.093061 0.384422
v 0.164147 0.152499 0.301354
v 0.177011 -0.005809 0.291629
v 0.031352 0.238238 0.311038
v 0.088619 -0.138045 0.286986
v -0.069295 -0.148936 0.291890
v -0.214954 0.095111 0.311299
v -0.126562 0.227348 0.315942
v -0.202090 -0.063196 0.301574
v 0.085366 0.106850 0.276817
v 0.096464 0.016145 0.271114
v 0.010002 0.160857 0.282626
v 0.042558 -0.057823 0.268673
v -0.049667 -0.068680 0.271274
v -0.136129 0.076032 0.282786
v -0.082224 0.150001 0.285227
v -0.125032 -0.014674 0.277083
v -0.048980 0.205558 -1.958907
v -0.043775 0.163020 -1.961581
v -0.099474 0.179001 -1.991933
v -0.084323 0.230885 -1.956182
v -0.069053 0.128332 -1.962726
v -0.112303 0.123241 -1.961506
v -0.152850 0.191106 -1.956107
v -0.127572 0.225795 -1.954963
v -0.147644 0.148569 -1.958782
vt 0.339160 0.193646
vt 0.368607 0.182175
vt 0.368606 0.223220
vt 0.327561 0.223221
vt 0.368607 0.182175
vt 0.398053 0.193645
vt 0.409651 0.223219
vt 0.368606 0.223220
vt 0.327561 0.223221
vt 0.368606 0.223220
vt 0.368605 0.264265
vt 0.339158 0.252795
vt 0.368606 0.223220
vt 0.409651 0.223219
vt 0.398051 0.252793
vt 0.368605 0.264265
vt 0.729303 0.156947
vt 0.647329 0.156947
vt 0.647329 0.133905
vt 0.729303 0.133905
vt 0.811277 0.156947
vt 0.811277 0.133905
vt 0.565355 0.156947
vt 0.565355 0.133905
vt 0.483381 0.156947
vt 0.483381 0.133905
vt 0.975224 0.156947
vt 0.893250 0.156947
vt 0.893250 0.133905
vt 0.975224 0.133905
vt 0.401408 0.156947
vt 0.401408 0.133905
vt 0.319434 0.156947
vt 0.319434 0.133905
vt 0.647329 0.081257
vt 0.725388 0.081257
vt 0.803446 0.081257
vt 0.569270 0.081257
vt 0.491212 0.081257
vt 0.881505 0.081257
vt 0.959563 0.081257
vt 0.413153 0.081257
vt 0.335094 0.081257
vt 0.647330 0.038157
vt 0.719627 0.038157
vt 0.793505 0.038157
vt 0.575032 0.038157
vt 0.501153 0.038157
vt 0.867383 0.038157
vt 0.939679 0.038157
vt 0.427274 0.038157
vt 0.354977 0.038157
vt 0.077082 0.007176
vt 0.110960 0.007173
vt 0.111085 0.945371
vt 0.077166 0.945372
vt 0.042479 0.007178
vt 0.042474 0.945373
vt 0.144863 0.007169
vt 0.144952 0.945369
vt 0.179523 0.007168
vt 0.179526 0.945368
vt 0.248086 0.007173
vt 0.281964 0.007176
vt 0.281874 0.945372
vt 0.247963 0.945371
vt 0.007876 0.007176
vt 0.007786 0.945372
vt 0.214183 0.007169
vt 0.214099 0.945369
vt 0.728778 0.253118
vt 0.707718 0.318230
vt 0.643229 0.338667
vt 0.578740 0.318230
vt 0.557680 0.253118
vt 0.578740 0.188006
vt 0.643229 0.167569
vt 0.707718 0.188006
vn 0.401662 0.308579 -0.862233
vn 0.401662 0.308579 -0.862233
vn 0.401662 0.308579 -0.862233
vn 0.401662 0.308579 -0.862233
vn 0.221711 -0.383638 -0.896474
vn 0.221711 -0.383638 -0.896474
vn 0.221711 -0.383638 -0.896474
vn 0.221711 -0.383638 -0.896474
vn -0.282235 0.484648 -0.827925
vn -0.282235 0.484648 -0.827925
vn -0.282235 0.484648 -0.827925
vn -0.282235 0.484648 -0.827925
vn -0.462194 -0.207563 -0.862145
vn -0.462194 -0.207563 -0.862145
vn -0.462194 -0.207563 -0.862145
vn -0.462194 -0.207563 -0.862145
vn 0.817029 0.023651 0.576112
vn 0.817029 0.023651 0.576112
vn 0.817029 0.023651 0.576112
vn 0.817029 0.023651 0.576112
vn 0.452027 0.641955 0.619327
vn 0.452027 0.641955 0.619327
vn 0.452027 0.641955 0.619327
vn 0.452027 0.641955 0.619327
vn 0.688497 -0.470791 0.551660
vn 0.688497 -0.470791 0.551660
vn 0.688497 -0.470791 0.551660
vn 0.688497 -0.470791 0.551660
vn 0.068134 -0.834817 0.546295
vn 0.068134 -0.834817 0.546295
vn 0.068134 -0.834817 0.546295
vn 0.068134 -0.834817 0.546295
vn -0.646334 0.400426 0.649547
vn -0.646334 0.400426 0.649547
vn -0.646334 0.400426 0.649547
vn -0.646334 0.400426 0.649547
vn -0.026378 0.765132 0.643333
vn -0.026378 0.765132 0.643333
vn -0.026378 0.765132 0.643333
vn -0.026378 0.765132 0.643333
vn -0.410271 -0.711641 0.570303
vn -0.410271 -0.711641 0.570303
vn -0.410271 -0.711641 0.570303
vn -0.410271 -0.711641 0.570303
vn -0.774866 -0.094016 0.625095
vn -0.774866 -0.094016 0.625095
vn -0.774866 -0.094016 0.625095
vn -0.774866 -0.094016 0.625095
vn 0.861944 0.100576 -0.496927
vn 0.861944 0.100576 -0.496927
vn 0.861944 0.100576 -0.496927
vn 0.861944 0.100576 -0.496927
vn 0.463818 0.768203 -0.441290
vn 0.463818 0.768203 -0.441290
vn 0.463818 0.768203 -0.441290
vn 0.463818 0.768203 -0.441290
vn 0.716146 -0.460286 -0.524664
vn 0.716146 -0.460286 -0.524664
vn 0.716146 -0.460286 -0.524664
vn 0.716146 -0.460285 -0.524664
vn 0.042579 -0.852233 -0.521427
vn 0.042579 -0.852233 -0.521427
vn 0.042579 -0.852233 -0.521427
vn 0.042579 -0.852233 -0.521427
vn -0.749166 0.515392 -0.416078
vn -0.749166 0.515392 -0.416078
vn -0.749166 0.515392 -0.416078
vn -0.749166 0.515392 -0.416078
vn -0.075420 0.907042 -0.414230
vn -0.075420 0.907042 -0.414230
vn -0.075420 0.907042 -0.414230
vn -0.075420 0.907042 -0.414230
vn -0.496659 -0.713394 -0.494366
vn -0.496659 -0.713394 -0.494366
vn -0.496659 -0.713394 -0.494366
vn -0.496659 -0.713394 -0.494366
vn -0.894964 -0.045470 -0.443815
vn -0.894964 -0.045470 -0.443815
vn -0.894964 -0.045470 -0.443815
vn -0.894964 -0.045470 -0.443815
vn 0.259455 0.084571 -0.962045
vn 0.259455 0.084571 -0.962045
vn 0.259455 0.084571 -0.962045
vn 0.259455 0.084571 -0.962045
vn 0.131067 0.299986 -0.944897
vn 0.131067 0.299986 -0.944897
vn 0.131067 0.299986 -0.944897
vn 0.131067 0.299986 -0.944897
vn 0.208708 -0.110641 -0.971699
vn 0.208708 -0.110641 -0.971699
vn 0.208708 -0.110641 -0.971699
vn 0.208708 -0.110641 -0.971699
vn -0.008540 -0.237063 -0.971457
vn -0.008540 -0.237063 -0.971457
vn -0.008540 -0.237063 -0.971457
vn -0.008540 -0.237063 -0.971457
vn -0.275639 0.222345 -0.935193
vn -0.275640 0.222345 -0.935193
vn -0.275640 0.222345 -0.935193
vn -0.275640 0.222345 -0.935193
vn -0.058392 0.348764 -0.935390
vn -0.058392 0.348764 -0.935390
vn -0.058392 0.348764 -0.935390
vn -0.058392 0.348764 -0.935390
vn -0.197999 -0.188284 -0.961949
vn -0.197999 -0.188284 -0.961949
vn -0.197999 -0.188284 -0.961949
vn -0.197999 -0.188284 -0.961949
vn -0.326390 0.027131 -0.944846
vn -0.326390 0.027131 -0.944846
vn -0.326390 0.027131 -0.944846
vn -0.326390 0.027131 -0.944846
vn 0.991727 0.123533 -0.034900
vn 0.991727 0.123533 -0.034900
vn 0.991727 0.123533 -0.034900
vn 0.991727 0.123533 -0.034900
vn 0.583388 0.811951 0.019835
vn 0.583388 0.811951 0.019835
vn 0.583388 0.811951 0.019835
vn 0.583388 0.811951 0.019835
vn 0.807287 -0.585994 -0.069990
vn 0.807287 -0.585994 -0.069990
vn 0.807287 -0.585994 -0.069990
vn 0.807287 -0.585994 -0.069990
vn 0.114695 -0.990979 -0.069329
vn 0.114695 -0.990979 -0.069329
vn 0.114695 -0.990979 -0.069329
vn 0.114695 -0.990979 -0.069329
vn -0.807805 0.586840 0.055407
vn -0.807805 0.586840 0.055407
vn -0.807805 0.586840 0.055407
vn -0.807805 0.586840 0.055407
vn -0.115194 0.991825 0.054894
vn -0.115194 0.991825 0.054894
vn -0.115194 0.991825 0.054894
vn -0.115194 0.991825 0.054894
vn -0.583893 -0.811107 -0.034271
vn -0.583893 -0.811107 -0.034271
vn -0.583893 -0.811107 -0.034271
vn -0.583893 -0.811107 -0.034271
vn -0.992238 -0.122683 0.020316
vn -0.992238 -0.122683 0.020316
vn -0.992238 -0.122683 0.020316
vn -0.992238 -0.122683 0.020316
vn 0.035019 -0.058442 0.997676
vn 0.035019 -0.058442 0.997676
vn 0.035019 -0.058442 0.997676
vn 0.035019 -0.058442 0.997676
vn 0.035019 -0.058442 0.997676
vn 0.035019 -0.058442 0.997676
vn 0.035019 -0.058442 0.997676
vn 0.035019 -0.058442 0.997676
s off
g mota_mfz_lv2:pCube7 mota_mfz_lv2:polySurface6 polySurface26 polySurface1
usemtl mota_mfz_lv2:lambert4SG
f 33/1/1 34/2/2 35/3/3 36/4/4
f 34/5/5 37/6/6 38/7/7 35/8/8
f 36/9/9 35/10/10 39/11/11 40/12/12
f 35/13/13 38/14/14 41/15/15 39/16/16
f 7/17/17 8/18/18 10/19/19 9/20/20
f 6/21/21 7/17/22 9/20/23 11/22/24
f 8/18/25 1/23/26 12/24/27 10/19/28
f 1/23/29 2/25/30 13/26/31 12/24/32
f 4/27/33 5/28/34 15/29/35 14/30/36
f 5/28/37 6/21/38 11/22/39 15/29/40
f 2/25/41 3/31/42 16/32/43 13/26/44
f 3/31/45 4/33/46 14/34/47 16/32/48
f 9/20/49 10/19/50 18/35/51 17/36/52
f 11/22/53 9/20/54 17/36/55 19/37/56
f 10/19/57 12/24/58 20/38/59 18/35/60
f 12/24/61 13/26/62 21/39/63 20/38/64
f 14/30/65 15/29/66 23/40/67 22/41/68
f 15/29/69 11/22/70 19/37/71 23/40/72
f 13/26/73 16/32/74 24/42/75 21/39/76
f 16/32/77 14/34/78 22/43/79 24/42/80
f 17/36/81 18/35/82 26/44/83 25/45/84
f 19/37/85 17/36/86 25/45/87 27/46/88
f 18/35/89 20/38/90 28/47/91 26/44/92
f 20/38/93 21/39/94 29/48/95 28/47/96
f 22/41/97 23/40/98 31/49/99 30/50/100
f 23/40/101 19/37/102 27/46/103 31/49/104
f 21/39/105 24/42/106 32/51/107 29/48/108
f 24/42/109 22/43/110 30/52/111 32/51/112
f 25/53/113 26/54/114 34/55/115 33/56/116
f 27/57/117 25/53/118 33/56/119 36/58/120
f 26/54/121 28/59/122 37/60/123 34/55/124
f 28/59/125 29/61/126 38/62/127 37/60/128
f 30/63/129 31/64/130 40/65/131 39/66/132
f 31/67/133 27/57/134 36/58/135 40/68/136
f 29/61/137 32/69/138 41/70/139 38/62/140
f 32/69/141 30/63/142 39/66/143 41/70/144
f 8/71/145 7/72/146 6/73/147 5/74/148 4/75/149 3/76/150 2/77/151 1/78/152
g mota_mfz_lv2:default1
v 0.105086 0.455223 0.849925
v 0.124121 0.630190 0.331532
v -0.344356 0.102116 1.039701
v -0.016872 0.041148 0.544137
v -0.174786 -0.519655 0.274668
v 0.233079 0.866675 1.289432
v 0.096103 0.317023 1.379996
v 0.033946 -0.043661 1.991933
v -0.217512 -0.866675 1.203712
v -0.072295 -0.330777 1.347961
v -0.118859 -0.406257 0.807322
v 0.344356 -0.075208 1.005140
vt 0.816982 0.507886
vt 0.643986 0.587824
vt 0.874933 0.291096
vt 0.412779 0.291096
vt 0.643856 0.390529
vt 0.992196 0.680298
vt 0.295515 0.680298
vt 0.513672 0.728731
vt 0.643856 0.987776
vt 0.774040 0.728731
vt 0.470730 0.507886
vt 0.643986 0.587824
vn 0.874853 0.448312 0.183436
vn 0.874853 0.448312 0.183436
vn 0.874853 0.448312 0.183436
vn 0.793520 0.067178 -0.604824
vn 0.793520 0.067178 -0.604824
vn 0.793520 0.067178 -0.604824
vn 0.846311 0.243057 -0.474004
vn 0.846311 0.243057 -0.474004
vn 0.846311 0.243057 -0.474004
vn 0.714199 -0.355784 0.602775
vn 0.714199 -0.355784 0.602775
vn 0.714199 -0.355784 0.602775
vn 0.636791 -0.737813 0.223899
vn 0.636791 -0.737813 0.223899
vn 0.636791 -0.737813 0.223899
vn 0.782279 -0.093471 0.615875
vn 0.782279 -0.093471 0.615875
vn 0.782279 -0.093471 0.615875
vn 0.633085 -0.578480 -0.514358
vn 0.633085 -0.578480 -0.514358
vn 0.633085 -0.578480 -0.514358
vn 0.542829 -0.831231 0.119968
vn 0.542829 -0.831231 0.119968
vn 0.542829 -0.831231 0.119968
vn 0.675380 -0.388015 -0.627141
vn 0.675380 -0.388015 -0.627141
vn 0.675380 -0.388015 -0.627141
vn 0.909216 0.311650 0.276044
vn 0.909216 0.311650 0.276044
vn 0.909216 0.311650 0.276044
vn -0.528991 0.809760 0.253884
vn -0.528991 0.809760 0.253884
vn -0.528991 0.809760 0.253884
vn -0.715778 0.455779 -0.529082
vn -0.715778 0.455779 -0.529082
vn -0.715778 0.455779 -0.529082
vn -0.664750 0.632111 -0.398174
vn -0.664750 0.632111 -0.398174
vn -0.664750 0.632111 -0.398174
vn -0.737052 0.017873 0.675600
vn -0.737052 0.017873 0.675600
vn -0.737052 0.017873 0.675600
vn -0.889246 -0.344898 0.300478
vn -0.889246 -0.344898 0.300478
vn -0.889246 -0.344898 0.300478
vn -0.668756 0.280130 0.688689
vn -0.668756 0.280130 0.688689
vn -0.668756 0.280130 0.688689
vn -0.878577 -0.189267 -0.438498
vn -0.878577 -0.189267 -0.438498
vn -0.878577 -0.189267 -0.438498
vn -0.862151 -0.469485 0.190473
vn -0.862151 -0.469485 0.190473
vn -0.862151 -0.469485 0.190473
vn -0.834253 0.000674 -0.551382
vn -0.834253 0.000674 -0.551382
vn -0.834253 0.000674 -0.551382
vn -0.616077 0.704367 0.352586
vn -0.616077 0.704367 0.352586
vn -0.616077 0.704367 0.352586
s off
g mota_mfz_lv2:pCube7 mota_mfz_lv2:polySurface7 polySurface1 polySurface27
usemtl mota_mfz_lv2:lambert4SG
f 42/79/153 53/80/154 43/81/155
f 53/80/156 46/82/157 45/83/158
f 47/84/159 53/80/160 42/79/161
f 50/85/162 53/80/163 51/86/164
f 53/80/165 49/87/166 51/86/167
f 48/88/168 53/80/169 47/84/170
f 52/89/171 53/80/172 50/85/173
f 46/82/174 53/80/175 52/89/176
f 43/81/177 53/80/178 45/83/179
f 53/80/180 48/88/181 49/87/182
f 42/79/183 43/81/184 44/90/185
f 44/90/186 45/83/187 46/82/188
f 47/84/189 42/79/190 44/90/191
f 50/85/192 51/86/193 44/90/194
f 44/90/195 51/86/196 49/87/197
f 48/88/198 47/84/199 44/90/200
f 52/89/201 50/85/202 44/90/203
f 46/82/204 52/89/205 44/90/206
f 43/81/207 45/83/208 44/90/209
f 44/90/210 49/87/211 48/88/212
