# This file uses centimeters as units for non-parametric coordinates.

mtllib mfz_lv3.mtl
g mota_mfz_lv3:default1
v 0.015895 0.019870 -0.030785
v 0.074964 0.043360 -0.030877
v -0.042240 0.047699 -0.028332
v 0.102108 0.100801 -0.028754
v 0.077933 0.160510 -0.025501
v -0.039271 0.164850 -0.022956
v -0.066416 0.107407 -0.025078
v 0.019799 0.188340 -0.023047
v -0.018148 0.056616 -1.688344
v 0.069022 0.091279 -1.688479
v -0.016714 0.184276 -1.755001
v -0.103937 0.097683 -1.684723
v 0.109080 0.176043 -1.685347
v 0.073403 0.264153 -1.680546
v -0.099556 0.270558 -1.676791
v -0.139615 0.185792 -1.679922
v -0.012386 0.305217 -1.676926
v -0.042954 -0.091294 0.191897
v -0.106767 -0.116754 0.191992
v -0.169605 -0.086595 0.194647
v -0.013545 -0.029242 0.194188
v -0.039754 0.035301 0.197706
v -0.195814 -0.022053 0.198166
v -0.166405 0.039999 0.200456
v -0.102590 0.065460 0.200362
v 0.147414 0.007558 0.590048
v 0.057036 -0.026649 0.569773
v -0.032802 0.017594 0.565303
v 0.188298 0.094322 0.613508
v 0.150034 0.186096 0.626223
v -0.071065 0.109368 0.578018
v -0.030182 0.196131 0.601478
v 0.060197 0.230340 0.621753
v -0.216614 -0.360361 0.958564
v -0.307744 -0.394793 0.937681
v -0.398368 -0.350119 0.932997
v -0.175427 -0.272898 0.982657
v -0.214062 -0.180328 0.995645
v -0.437003 -0.257550 0.945986
v -0.395816 -0.170086 0.970079
v -0.304686 -0.135653 0.990962
v -0.208514 -0.380803 1.389009
v -0.291829 -0.411862 1.433956
v -0.379057 -0.365608 1.455922
v -0.174844 -0.296483 1.347982
v -0.216108 -0.204896 1.336168
v -0.420320 -0.274022 1.444106
v -0.386652 -0.189703 1.403080
v -0.303337 -0.158641 1.358133
v 0.071882 -0.132175 1.619466
v 0.052157 -0.107186 1.713875
v -0.009774 -0.038604 1.755001
v 0.042242 -0.103623 1.528730
v -0.023584 -0.033639 1.497113
v -0.075601 0.031379 1.723384
v -0.105240 0.059931 1.632649
v -0.085516 0.034944 1.538240
v 0.430126 0.255811 1.345113
v 0.437003 0.298986 1.413539
v 0.395334 0.363685 1.443087
v 0.382824 0.256128 1.279113
v 0.319869 0.303988 1.255845
v 0.332379 0.411545 1.419820
v 0.285078 0.411862 1.353821
v 0.278201 0.368687 1.285394
v 0.399884 0.375231 1.323882
vt 0.754442 0.621637
vt 0.739427 0.659921
vt 0.792559 0.659920
vt 0.792560 0.606788
vt 0.845691 0.659918
vt 0.830677 0.621635
vt 0.754440 0.698204
vt 0.792558 0.713051
vt 0.830675 0.698201
vt 0.077082 0.007176
vt 0.077166 0.945372
vt 0.111085 0.945371
vt 0.110960 0.007173
vt 0.042479 0.007178
vt 0.042474 0.945373
vt 0.144952 0.945369
vt 0.144863 0.007169
vt 0.179526 0.945368
vt 0.179523 0.007168
vt 0.248086 0.007173
vt 0.247963 0.945371
vt 0.281874 0.945372
vt 0.281964 0.007176
vt 0.007876 0.007176
vt 0.007786 0.945372
vt 0.214099 0.945369
vt 0.214183 0.007169
vt 0.413778 0.999648
vt 0.413783 0.857825
vt 0.379596 0.857825
vt 0.379582 0.999647
vt 0.346292 0.857826
vt 0.346191 0.999647
vt 0.448005 0.999648
vt 0.447970 0.857825
vt 0.482250 0.999648
vt 0.482247 0.857825
vt 0.587420 0.999647
vt 0.587418 0.857826
vt 0.552955 0.857826
vt 0.552999 0.999648
vt 0.310950 0.857825
vt 0.310950 0.999647
vt 0.517570 0.999648
vt 0.517538 0.857825
vt 0.413775 0.697208
vt 0.379620 0.697199
vt 0.346368 0.697193
vt 0.447977 0.697217
vt 0.482256 0.697222
vt 0.587394 0.697215
vt 0.552893 0.697219
vt 0.310950 0.697193
vt 0.517512 0.697222
vt 0.413765 0.525649
vt 0.379602 0.525657
vt 0.346347 0.525663
vt 0.447989 0.525641
vt 0.482275 0.525635
vt 0.587396 0.525619
vt 0.552872 0.525623
vt 0.310957 0.525669
vt 0.517560 0.525629
vt 0.413775 0.378533
vt 0.379609 0.378533
vt 0.346365 0.378533
vt 0.448045 0.378533
vt 0.482281 0.378533
vt 0.587441 0.378533
vt 0.552915 0.378533
vt 0.310967 0.378533
vt 0.517569 0.378533
vt 0.413759 0.209089
vt 0.379556 0.209090
vt 0.346362 0.209092
vt 0.448064 0.209088
vt 0.482260 0.209086
vt 0.587523 0.209102
vt 0.552947 0.209092
vt 0.310957 0.209095
vt 0.517596 0.209083
vt 0.413734 0.001064
vt 0.379477 0.001051
vt 0.346328 0.001045
vt 0.448092 0.001066
vt 0.482246 0.001043
vt 0.587506 0.001122
vt 0.552994 0.001051
vt 0.310953 0.001062
vt 0.517649 0.000998
vt 0.754473 0.752289
vt 0.739421 0.790558
vt 0.792483 0.790466
vt 0.792497 0.737422
vt 0.845757 0.790472
vt 0.830661 0.752245
vt 0.792470 0.843753
vt 0.830716 0.828855
vt 0.754533 0.829041
vn -0.036359 -0.462225 -0.886017
vn -0.036359 -0.462225 -0.886017
vn -0.036359 -0.462225 -0.886017
vn -0.036359 -0.462225 -0.886017
vn 0.485618 0.027784 -0.873730
vn 0.485618 0.027784 -0.873730
vn 0.485618 0.027784 -0.873730
vn 0.485618 0.027784 -0.873730
vn -0.520131 0.052299 -0.852484
vn -0.520131 0.052299 -0.852484
vn -0.520131 0.052299 -0.852484
vn -0.520131 0.052299 -0.852484
vn 0.001837 0.542310 -0.840176
vn 0.001837 0.542310 -0.840176
vn 0.001837 0.542310 -0.840176
vn 0.001837 0.542310 -0.840176
vn 0.368818 -0.927707 -0.057733
vn 0.368818 -0.927707 -0.057733
vn 0.368818 -0.927707 -0.057733
vn 0.368818 -0.927707 -0.057733
vn -0.432817 -0.900577 -0.040369
vn -0.432817 -0.900577 -0.040369
vn -0.432817 -0.900577 -0.040369
vn -0.432817 -0.900577 -0.040369
vn 0.903853 -0.425456 -0.045131
vn 0.903853 -0.425456 -0.045131
vn 0.903853 -0.425456 -0.045131
vn 0.903853 -0.425456 -0.045131
vn 0.926711 0.375682 -0.008347
vn 0.926711 0.375682 -0.008347
vn 0.926711 0.375682 -0.008347
vn 0.926711 0.375682 -0.008347
vn -0.904141 0.426143 0.030533
vn -0.904141 0.426143 0.030533
vn -0.904141 0.426143 0.030533
vn -0.904141 0.426143 0.030533
vn -0.926997 -0.375018 -0.006104
vn -0.926997 -0.375018 -0.006104
vn -0.926997 -0.375018 -0.006104
vn -0.926997 -0.375018 -0.006104
vn 0.432530 0.901247 0.025918
vn 0.432530 0.901247 0.025918
vn 0.432530 0.901247 0.025918
vn 0.432530 0.901247 0.025918
vn -0.369106 0.928386 0.043133
vn -0.369106 0.928386 0.043133
vn -0.369106 0.928386 0.043133
vn -0.369106 0.928386 0.043133
vn 0.368818 -0.927707 -0.057733
vn 0.347041 -0.872537 -0.343863
vn 0.347041 -0.872537 -0.343863
vn 0.368818 -0.927707 -0.057733
vn -0.359198 -0.694407 -0.623519
vn -0.359198 -0.694407 -0.623519
vn -0.359198 -0.694407 -0.623519
vn -0.359198 -0.694406 -0.623520
vn 0.903853 -0.425456 -0.045131
vn 0.880826 -0.424601 0.209428
vn 0.880826 -0.424601 0.209428
vn 0.903853 -0.425456 -0.045131
vn 0.773881 0.282930 0.566621
vn 0.773881 0.282930 0.566621
vn 0.773881 0.282930 0.566621
vn 0.773881 0.282930 0.566621
vn -0.904141 0.426143 0.030533
vn -0.869171 0.420934 -0.259532
vn -0.869171 0.420934 -0.259532
vn -0.904141 0.426143 0.030533
vn -0.754863 -0.273611 -0.596086
vn -0.754863 -0.273611 -0.596086
vn -0.754863 -0.273611 -0.596086
vn -0.754863 -0.273611 -0.596086
vn 0.367780 0.714828 0.594777
vn 0.367780 0.714828 0.594777
vn 0.367780 0.714828 0.594777
vn 0.367780 0.714828 0.594777
vn -0.369106 0.928386 0.043133
vn -0.353211 0.887820 0.294988
vn -0.353211 0.887820 0.294988
vn -0.369106 0.928386 0.043133
vn 0.352516 -0.933447 0.066410
vn 0.352516 -0.933447 0.066410
vn 0.352516 -0.933447 0.066410
vn 0.352516 -0.933447 0.066410
vn -0.408915 -0.829844 0.379666
vn -0.408915 -0.829844 0.379666
vn -0.649180 -0.637953 0.414224
vn -0.649710 -0.637389 0.414261
vn 0.876114 -0.357940 -0.322960
vn 0.876114 -0.357940 -0.322960
vn 0.876114 -0.357940 -0.322960
vn 0.876114 -0.357940 -0.322960
vn 0.617799 0.612077 -0.493645
vn 0.618191 0.611660 -0.493672
vn 0.788959 0.375878 -0.486066
vn 0.788959 0.375878 -0.486066
vn -0.903397 0.399951 0.154640
vn -0.903397 0.399951 0.154640
vn -0.903397 0.399951 0.154640
vn -0.903397 0.399951 0.154640
vn -0.649710 -0.637389 0.414261
vn -0.649180 -0.637953 0.414224
vn -0.827836 -0.383911 0.409023
vn -0.827836 -0.383911 0.409023
vn 0.393586 0.796445 -0.459092
vn 0.393586 0.796445 -0.459092
vn 0.618191 0.611660 -0.493672
vn 0.617799 0.612077 -0.493645
vn -0.322876 0.915516 -0.239962
vn -0.322876 0.915516 -0.239962
vn -0.322876 0.915516 -0.239962
vn -0.322876 0.915516 -0.239962
vn 0.402673 -0.815202 -0.416295
vn 0.386528 -0.881816 -0.270180
vn 0.378099 -0.900477 -0.214902
vn 0.402673 -0.815202 -0.416295
vn -0.235668 -0.560053 -0.794230
vn -0.235668 -0.560053 -0.794230
vn -0.235668 -0.560053 -0.794230
vn -0.235668 -0.560053 -0.794230
vn 0.815406 -0.474579 0.331495
vn 0.867312 -0.455615 0.200460
vn 0.883940 -0.444867 0.144029
vn 0.815406 -0.474579 0.331495
vn 0.623526 0.153213 0.766643
vn 0.623526 0.153213 0.766643
vn 0.623526 0.153213 0.766643
vn 0.623526 0.153213 0.766643
vn -0.813624 0.474827 -0.335492
vn -0.887332 0.443107 -0.127665
vn -0.871832 0.453823 -0.184265
vn -0.813624 0.474827 -0.335492
vn -0.620941 -0.151801 -0.769018
vn -0.620941 -0.151801 -0.769018
vn -0.620941 -0.151801 -0.769018
vn -0.620941 -0.151801 -0.769018
vn 0.237088 0.562687 0.791942
vn 0.237088 0.562687 0.791942
vn 0.237088 0.562687 0.791942
vn 0.237088 0.562687 0.791942
vn -0.402570 0.817218 0.412423
vn -0.379144 0.896382 0.229672
vn -0.387614 0.876879 0.284320
vn -0.402570 0.817218 0.412423
vn 0.386528 -0.881816 -0.270180
vn 0.417353 -0.898584 0.135510
vn 0.415535 -0.900183 0.130389
vn 0.378099 -0.900477 -0.214902
vn -0.456155 -0.889810 -0.012660
vn -0.456155 -0.889810 -0.012660
vn -0.456155 -0.889810 -0.012660
vn -0.456155 -0.889810 -0.012660
vn 0.867312 -0.455615 0.200460
vn 0.864039 -0.456130 -0.213028
vn 0.865437 -0.455182 -0.209352
vn 0.883940 -0.444867 0.144029
vn 0.917059 0.397693 0.029032
vn 0.917059 0.397693 0.029032
vn 0.917059 0.397693 0.029032
vn 0.917059 0.397693 0.029032
vn -0.887332 0.443107 -0.127665
vn -0.861874 0.457405 0.218983
vn -0.859033 0.459286 0.226096
vn -0.871832 0.453823 -0.184265
vn -0.917152 -0.398042 0.019871
vn -0.917152 -0.398042 0.019871
vn -0.917152 -0.398042 0.019871
vn -0.917152 -0.398042 0.019871
vn 0.459018 0.886398 0.060016
vn 0.459018 0.886398 0.060016
vn 0.459018 0.886398 0.060016
vn 0.459018 0.886398 0.060016
vn -0.379144 0.896382 0.229672
vn -0.413383 0.902493 -0.120914
vn -0.414438 0.901605 -0.123893
vn -0.387614 0.876879 0.284320
vn 0.417353 -0.898584 0.135510
vn 0.661840 -0.684127 0.306495
vn 0.675232 -0.671506 0.305191
vn 0.415535 -0.900183 0.130389
vn -0.120344 -0.593517 0.795773
vn -0.120344 -0.593517 0.795773
vn -0.120344 -0.593517 0.795773
vn -0.120344 -0.593517 0.795773
vn 0.864039 -0.456130 -0.213028
vn 0.634367 -0.659409 -0.403433
vn 0.625860 -0.667726 -0.403040
vn 0.865437 -0.455182 -0.209352
vn 0.553587 0.146552 -0.819795
vn 0.553587 0.146552 -0.819795
vn 0.553587 0.146552 -0.819795
vn 0.553587 0.146552 -0.819795
vn -0.861874 0.457405 0.218983
vn -0.606445 0.689494 0.396009
vn -0.617655 0.678799 0.397157
vn -0.859033 0.459286 0.226096
vn -0.545688 -0.139570 0.826284
vn -0.545688 -0.139570 0.826284
vn -0.545688 -0.139570 0.826284
vn -0.545688 -0.139570 0.826284
vn 0.125840 0.598238 -0.791376
vn 0.125840 0.598238 -0.791376
vn 0.125840 0.598238 -0.791376
vn 0.125840 0.598238 -0.791376
vn -0.413383 0.902493 -0.120914
vn -0.652882 0.689554 -0.313464
vn -0.643435 0.698174 -0.313920
vn -0.414438 0.901605 -0.123893
vn 0.661840 -0.684127 0.306495
vn 0.794259 -0.535591 0.286871
vn 0.794259 -0.535591 0.286871
vn 0.675232 -0.671506 0.305191
vn 0.591355 0.032386 0.805760
vn 0.591355 0.032386 0.805760
vn 0.591355 0.032386 0.805760
vn 0.591355 0.032386 0.805760
vn 0.634367 -0.659409 -0.403433
vn 0.517449 -0.759647 -0.393933
vn 0.517449 -0.759647 -0.393933
vn 0.625860 -0.667726 -0.403040
vn -0.098378 -0.506479 -0.856622
vn -0.098378 -0.506479 -0.856622
vn -0.098378 -0.506479 -0.856622
vn -0.098378 -0.506479 -0.856622
vn -0.606445 0.689494 0.396009
vn -0.462851 0.803140 0.375146
vn -0.462851 0.803140 0.375146
vn -0.617655 0.678799 0.397157
vn 0.126298 0.528898 0.839235
vn 0.126298 0.528898 0.839235
vn 0.126298 0.528898 0.839235
vn 0.126298 0.528898 0.839235
vn -0.568864 -0.006075 -0.822410
vn -0.568864 -0.006075 -0.822410
vn -0.568864 -0.006075 -0.822410
vn -0.568863 -0.006075 -0.822410
vn -0.652882 0.689554 -0.313464
vn -0.749439 0.587590 -0.305089
vn -0.749439 0.587590 -0.305089
vn -0.643435 0.698174 -0.313920
vn 0.927859 0.365687 -0.073150
vn 0.848439 0.286885 -0.444802
vn 0.641277 0.622250 -0.448964
vn 0.730214 0.680454 -0.061400
vn 0.322146 0.851878 -0.412948
vn 0.427667 0.903011 -0.040883
vn 0.730214 0.680454 -0.061400
vn 0.641277 0.622250 -0.448964
vn 0.454691 0.463520 -0.760529
vn 0.183379 0.692679 -0.697544
vn 0.322146 0.851878 -0.412948
vn 0.641277 0.622250 -0.448964
vn 0.848439 0.286885 -0.444802
vn 0.664939 0.177461 -0.725510
vn 0.454691 0.463520 -0.760529
vn 0.641277 0.622250 -0.448964
s off
g mota_mfz_lv3:pCube5 mota_mfz_lv3:polySurface8 polySurface28 polySurface3
usemtl mota_mfz_lv3:lambert3SG
f 9/1/1 12/2/2 11/3/3 10/4/4
f 10/4/5 11/3/6 14/5/7 13/6/8
f 12/2/9 16/7/10 15/8/11 11/3/12
f 11/3/13 15/8/14 17/9/15 14/5/16
f 1/10/17 9/11/18 10/12/19 2/13/20
f 3/14/21 12/15/22 9/11/23 1/10/24
f 2/13/25 10/12/26 13/16/27 4/17/28
f 4/17/29 13/16/30 14/18/31 5/19/32
f 6/20/33 15/21/34 16/22/35 7/23/36
f 7/24/37 16/25/38 12/15/39 3/14/40
f 5/19/41 14/18/42 17/26/43 8/27/44
f 8/27/45 17/26/46 15/21/47 6/20/48
f 2/28/49 18/29/50 19/30/51 1/31/52
f 1/31/53 19/30/54 20/32/55 3/33/56
f 4/34/57 21/35/58 18/29/59 2/28/60
f 5/36/61 22/37/62 21/35/63 4/34/64
f 7/38/65 23/39/66 24/40/67 6/41/68
f 3/33/69 20/32/70 23/42/71 7/43/72
f 8/44/73 25/45/74 22/37/75 5/36/76
f 6/41/77 24/40/78 25/45/79 8/44/80
f 18/29/81 26/46/82 27/47/83 19/30/84
f 19/30/85 27/47/86 28/48/87 20/32/88
f 21/35/89 29/49/90 26/46/91 18/29/92
f 22/37/93 30/50/94 29/49/95 21/35/96
f 23/39/97 31/51/98 32/52/99 24/40/100
f 20/32/101 28/48/102 31/53/103 23/42/104
f 25/45/105 33/54/106 30/50/107 22/37/108
f 24/40/109 32/52/110 33/54/111 25/45/112
f 26/46/113 34/55/114 35/56/115 27/47/116
f 27/47/117 35/56/118 36/57/119 28/48/120
f 29/49/121 37/58/122 34/55/123 26/46/124
f 30/50/125 38/59/126 37/58/127 29/49/128
f 31/51/129 39/60/130 40/61/131 32/52/132
f 28/48/133 36/57/134 39/62/135 31/53/136
f 33/54/137 41/63/138 38/59/139 30/50/140
f 32/52/141 40/61/142 41/63/143 33/54/144
f 34/55/145 42/64/146 43/65/147 35/56/148
f 35/56/149 43/65/150 44/66/151 36/57/152
f 37/58/153 45/67/154 42/64/155 34/55/156
f 38/59/157 46/68/158 45/67/159 37/58/160
f 39/60/161 47/69/162 48/70/163 40/61/164
f 36/57/165 44/66/166 47/71/167 39/62/168
f 41/63/169 49/72/170 46/68/171 38/59/172
f 40/61/173 48/70/174 49/72/175 41/63/176
f 42/64/177 50/73/178 51/74/179 43/65/180
f 43/65/181 51/74/182 52/75/183 44/66/184
f 45/67/185 53/76/186 50/73/187 42/64/188
f 46/68/189 54/77/190 53/76/191 45/67/192
f 47/69/193 55/78/194 56/79/195 48/70/196
f 44/66/197 52/75/198 55/80/199 47/71/200
f 49/72/201 57/81/202 54/77/203 46/68/204
f 48/70/205 56/79/206 57/81/207 49/72/208
f 50/73/209 58/82/210 59/83/211 51/74/212
f 51/74/213 59/83/214 60/84/215 52/75/216
f 53/76/217 61/85/218 58/82/219 50/73/220
f 54/77/221 62/86/222 61/85/223 53/76/224
f 55/78/225 63/87/226 64/88/227 56/79/228
f 52/75/229 60/84/230 63/89/231 55/80/232
f 57/81/233 65/90/234 62/86/235 54/77/236
f 56/79/237 64/88/238 65/90/239 57/81/240
f 59/91/241 58/92/242 66/93/243 60/94/244
f 64/95/245 63/96/246 60/94/247 66/93/248
f 62/97/249 65/98/250 64/95/251 66/93/252
f 58/92/253 61/99/254 62/97/255 66/93/256
g mota_mfz_lv3:default1
v -0.103094 0.264993 1.045649
v 0.068465 0.089855 0.855904
v 0.128101 0.267718 1.252171
v 0.299660 0.092580 1.062426
v 0.013098 0.011927 1.384289
v 0.184658 -0.163211 1.194544
v -0.218097 0.009203 1.177767
v -0.046538 -0.165936 0.988022
vt 0.735058 0.008947
vt 0.735058 0.131380
vt 0.857490 0.131380
vt 0.857490 0.008947
vt 0.735058 0.253813
vt 0.857490 0.253813
vt 0.735058 0.376246
vt 0.857490 0.376246
vt 0.735058 0.498678
vt 0.857490 0.498678
vt 0.979923 0.131380
vt 0.979923 0.008947
vt 0.612625 0.008947
vt 0.612625 0.131380
vn 0.370960 0.825089 -0.426166
vn 0.370960 0.825089 -0.426166
vn 0.370960 0.825089 -0.426166
vn 0.370960 0.825089 -0.426166
vn 0.745753 0.008790 0.666165
vn 0.745753 0.008790 0.666165
vn 0.745753 0.008790 0.666165
vn 0.745753 0.008790 0.666165
vn -0.370960 -0.825089 0.426166
vn -0.370960 -0.825089 0.426166
vn -0.370960 -0.825089 0.426166
vn -0.370960 -0.825089 0.426166
vn -0.745753 -0.008790 -0.666165
vn -0.745753 -0.008790 -0.666165
vn -0.745753 -0.008790 -0.666165
vn -0.745753 -0.008790 -0.666165
vn 0.553392 -0.564934 -0.612052
vn 0.553392 -0.564934 -0.612052
vn 0.553392 -0.564934 -0.612052
vn 0.553392 -0.564934 -0.612052
vn -0.553392 0.564934 0.612052
vn -0.553392 0.564934 0.612052
vn -0.553392 0.564934 0.612052
vn -0.553392 0.564934 0.612052
s off
g mota_mfz_lv3:pCube5 mota_mfz_lv3:polySurface9 polySurface3 polySurface29
usemtl mota_mfz_lv3:lambert3SG
f 67/100/257 69/101/258 70/102/259 68/103/260
f 69/101/261 71/104/262 72/105/263 70/102/264
f 71/104/265 73/106/266 74/107/267 72/105/268
f 73/106/269 67/108/270 68/109/271 74/107/272
f 68/103/273 70/102/274 72/110/275 74/111/276
f 73/112/277 71/113/278 69/101/279 67/100/280
