# This file uses centimeters as units for non-parametric coordinates.

mtllib mota_mofazheng_guangdai.mtl
g default
v 2.698971 0.001515 -0.937557
v 2.295882 0.001515 -1.728664
v 1.668056 0.001515 -2.356490
v 0.876949 0.001515 -2.759579
v 0.000000 0.001515 -2.898474
v -0.876949 0.001515 -2.759579
v -1.668056 0.001515 -2.356489
v -2.295881 0.001515 -1.728663
v -2.698970 0.001515 -0.937556
v -2.837865 0.001515 -0.060608
v -2.698970 0.001515 0.816340
v -2.295881 0.001515 1.607447
v -1.668055 0.001515 2.235273
v -0.876949 0.001515 2.638362
v -0.000000 0.001515 2.777257
v 0.876948 0.001515 2.638362
v 1.668055 0.001515 2.235273
v 2.295881 0.001515 1.607447
v 2.698970 0.001515 0.816340
v 2.837864 0.001515 -0.060608
v 4.002093 7.126634 -1.360966
v 3.404383 7.126634 -2.534035
v 2.473429 7.126634 -3.464991
v 1.300358 7.126634 -4.062699
v 0.000000 7.126634 -4.268655
v -1.300358 7.126634 -4.062698
v -2.473427 7.126634 -3.464990
v -3.404382 7.126634 -2.534035
v -4.002090 7.126634 -1.360966
v -4.208047 7.126634 -0.060608
v -4.002090 7.126634 1.239750
v -3.404379 7.126634 2.412820
v -2.473426 7.126634 3.343774
v -1.300358 7.126634 3.941482
v 0.000000 7.126634 4.147439
v 1.300358 7.126634 3.941482
v 2.473426 7.126634 3.343774
v 3.404381 7.126634 2.412818
v 4.002089 7.126634 1.239750
v 4.208046 7.126634 -0.060608
vt 0.375000 0.312500
vt 0.387500 0.312500
vt 0.400000 0.312500
vt 0.412500 0.312500
vt 0.425000 0.312500
vt 0.437500 0.312500
vt 0.450000 0.312500
vt 0.462500 0.312500
vt 0.475000 0.312500
vt 0.487500 0.312500
vt 0.500000 0.312500
vt 0.512500 0.312500
vt 0.525000 0.312500
vt 0.537500 0.312500
vt 0.550000 0.312500
vt 0.562500 0.312500
vt 0.575000 0.312500
vt 0.587500 0.312500
vt 0.600000 0.312500
vt 0.612500 0.312500
vt 0.625000 0.312500
vt 0.375000 0.688440
vt 0.387500 0.688440
vt 0.400000 0.688440
vt 0.412500 0.688440
vt 0.425000 0.688440
vt 0.437500 0.688440
vt 0.450000 0.688440
vt 0.462500 0.688440
vt 0.475000 0.688440
vt 0.487500 0.688440
vt 0.500000 0.688440
vt 0.512500 0.688440
vt 0.525000 0.688440
vt 0.537500 0.688440
vt 0.550000 0.688440
vt 0.562500 0.688440
vt 0.575000 0.688440
vt 0.587500 0.688440
vt 0.600000 0.688440
vt 0.612500 0.688440
vt 0.625000 0.688440
vn 0.933945 -0.188843 -0.303456
vn 0.794460 -0.188843 -0.577209
vn 0.794461 -0.188843 -0.577209
vn 0.933945 -0.188843 -0.303456
vn 0.577209 -0.188843 -0.794461
vn 0.577209 -0.188843 -0.794460
vn 0.303457 -0.188843 -0.933944
vn 0.303457 -0.188843 -0.933944
vn -0.000000 -0.188843 -0.982007
vn -0.000000 -0.188843 -0.982007
vn -0.303457 -0.188843 -0.933944
vn -0.303457 -0.188843 -0.933944
vn -0.577210 -0.188843 -0.794460
vn -0.577210 -0.188843 -0.794460
vn -0.794461 -0.188843 -0.577209
vn -0.794461 -0.188843 -0.577209
vn -0.933944 -0.188843 -0.303457
vn -0.933944 -0.188843 -0.303457
vn -0.982007 -0.188843 -0.000000
vn -0.982007 -0.188843 -0.000000
vn -0.933944 -0.188843 0.303457
vn -0.933944 -0.188843 0.303457
vn -0.794460 -0.188843 0.577210
vn -0.794460 -0.188843 0.577210
vn -0.577209 -0.188843 0.794461
vn -0.577209 -0.188843 0.794461
vn -0.303457 -0.188843 0.933944
vn -0.303457 -0.188843 0.933944
vn 0.000000 -0.188843 0.982007
vn 0.000000 -0.188843 0.982007
vn 0.303457 -0.188843 0.933944
vn 0.303457 -0.188843 0.933944
vn 0.577210 -0.188843 0.794460
vn 0.577209 -0.188843 0.794460
vn 0.794461 -0.188843 0.577209
vn 0.794461 -0.188843 0.577209
vn 0.933944 -0.188843 0.303457
vn 0.933944 -0.188843 0.303457
vn 0.982007 -0.188843 0.000001
vn 0.982007 -0.188843 0.000001
s 1
g pCylinder1
usemtl initialShadingGroup
f 1/1/1 2/2/2 22/23/3 21/22/4
f 2/2/2 3/3/5 23/24/6 22/23/3
f 3/3/5 4/4/7 24/25/8 23/24/6
f 4/4/7 5/5/9 25/26/10 24/25/8
f 5/5/9 6/6/11 26/27/12 25/26/10
f 6/6/11 7/7/13 27/28/14 26/27/12
f 7/7/13 8/8/15 28/29/16 27/28/14
f 8/8/15 9/9/17 29/30/18 28/29/16
f 9/9/17 10/10/19 30/31/20 29/30/18
f 10/10/19 11/11/21 31/32/22 30/31/20
f 11/11/21 12/12/23 32/33/24 31/32/22
f 12/12/23 13/13/25 33/34/26 32/33/24
f 13/13/25 14/14/27 34/35/28 33/34/26
f 14/14/27 15/15/29 35/36/30 34/35/28
f 15/15/29 16/16/31 36/37/32 35/36/30
f 16/16/31 17/17/33 37/38/34 36/37/32
f 17/17/33 18/18/35 38/39/36 37/38/34
f 18/18/35 19/19/37 39/40/38 38/39/36
f 19/19/37 20/20/39 40/41/40 39/40/38
f 20/20/39 1/21/1 21/42/4 40/41/40
