# This file uses centimeters as units for non-parametric coordinates.

mtllib box_xiemian.mtl
g default
v -3.000000 0.000000 9.000000
v 3.000000 0.000000 9.000000
v -3.000000 6.000000 -3.000000
v 3.000000 6.000000 -3.000000
v -3.000000 0.000000 -3.000000
v 3.000000 0.000000 -3.000000
vt 0.055459 0.001559
vt 0.414465 0.001284
vt 0.571927 0.155396
vt 0.414308 0.155396
vt 0.572230 0.999121
vt 0.414006 0.999121
vt 0.414075 0.591073
vt 0.572161 0.591073
vt 0.571764 0.001284
vt 0.930770 0.001544
vn 0.000000 0.000000 -1.000000
vn 0.000000 0.000000 -1.000000
vn 0.000000 0.000000 -1.000000
vn 0.000000 0.000000 -1.000000
vn 0.000000 -1.000000 0.000000
vn 0.000000 -1.000000 0.000000
vn 0.000000 -1.000000 0.000000
vn 0.000000 -1.000000 0.000000
vn 1.000000 0.000000 0.000000
vn 1.000000 0.000000 0.000000
vn 1.000000 0.000000 0.000000
vn -1.000000 0.000000 0.000000
vn -1.000000 0.000000 0.000000
vn -1.000000 0.000000 0.000000
vn 0.000000 0.894427 0.447214
vn 0.000000 0.894427 0.447214
vn 0.000000 0.894427 0.447214
vn 0.000000 0.894427 0.447214
s off
g box_floor:pCube4
usemtl box_floor:lambert3SG
f 3/3/1 4/4/2 6/2/3 5/9/4
f 5/5/5 6/6/6 2/7/7 1/8/8
f 2/1/9 6/2/10 4/4/11
f 5/9/12 1/10/13 3/3/14
f 2/7/15 4/4/16 3/3/17 1/8/18
